<?xml version="1.0" encoding="utf-8"?>
<!-- Generator: Adobe Illustrator 24.0.0, SVG Export Plug-In . SVG Version: 6.00 Build 0)  -->
<svg version="1.1" xmlns="http://www.w3.org/2000/svg" xmlns:xlink="http://www.w3.org/1999/xlink" x="0px" y="0px"
	 viewBox="0 0 1080 1080" style="enable-background:new 0 0 1080 1080;" xml:space="preserve">
<style type="text/css">
	.st0{display:none;}
	
		.st1{display:inline;fill:#FFFFFF;stroke:#000000;stroke-width:12;stroke-linecap:round;stroke-linejoin:round;stroke-miterlimit:10;}
	.st2{display:inline;}
</style>
<g id="Livello_1" class="st0">
	<ellipse class="st1" cx="339" cy="513.4" rx="171" ry="387.8"/>
	<path class="st2" d="M509.6,465c-11-191.5-83.1-339.4-170.6-339.4c-87.4,0-159.6,147.9-170.6,339.3
		c113.6-173.9,227.2-174.3,340.6,0L509.6,465z"/>
	<path class="st2" d="M504.6,574.6C493.6,766.1,421.4,914,334,914c-87.4,0-159.6-147.9-170.6-339.3c113.6,173.9,227.2,174.3,340.6,0
		L504.6,574.6z"/>
	<ellipse class="st1" cx="746" cy="512.4" rx="171" ry="387.8"/>
	<path class="st2" d="M916.6,464c-11-191.5-83.1-339.4-170.6-339.4c-87.4,0-159.6,147.9-170.6,339.3
		c113.6-173.9,227.2-174.3,340.6,0L916.6,464z"/>
	<path class="st2" d="M911.6,573.6C900.6,765.1,828.4,913,741,913c-87.4,0-159.6-147.9-170.6-339.3c113.6,173.9,227.2,174.3,340.6,0
		L911.6,573.6z"/>
	<path class="st2" d="M338.4,812c44.8,4.5,157.2-136.1,173.7-197.3c16.5-61.2,0-63.5,0-63.5C404.2,714.5,338.4,703.2,338.4,703.2
		s-65.8,11.3-173.7-151.9c0,0-16.5,2.3,0,63.5S293.6,816.5,338.4,812z"/>
	<path class="st2" d="M744.4,812c44.8,4.5,157.2-136.1,173.7-197.3s0-63.5,0-63.5C810.2,714.5,744.4,703.2,744.4,703.2
		s-65.8,11.3-173.7-151.9c0,0-16.5,2.3,0,63.5C587.1,675.9,699.6,816.5,744.4,812z"/>
</g>
<g id="Livello_3" class="st0">
	<ellipse class="st2" cx="339.4" cy="521.4" rx="63.7" ry="144.4"/>
	<ellipse class="st2" cx="746.4" cy="517.4" rx="63.7" ry="144.4"/>
</g>
<g id="Livello_2">
	<path d="M339,276.4c44.8-4.5,157.2,136.1,173.7,197.3s0,63.5,0,63.5C389,475,340,481,340,481s-60-1-174.7,56.2c0,0-16.5-2.3,0-63.5
		S294.2,271.9,339,276.4z"/>
	<path d="M746,276.4c44.8-4.5,157.2,136.1,173.7,197.3s0,63.5,0,63.5C796,475,747,481,747,481s-60-1-174.7,56.2c0,0-16.5-2.3,0-63.5
		C588.8,412.4,701.2,271.9,746,276.4z"/>
</g>
</svg>
