<svg xmlns="http://www.w3.org/2000/svg" viewBox="0 0 132.51 164.06"><title>E</title><g id="Livello_2" data-name="Livello 2"><g id="RESIN-A"><g id="E"><path d="M132.51,13.46q0,13.24-21.45,11.36-4.22-.42-15.36-1.26l-31.12.63q-3.16,0-12.41.21Q47.54,36.6,37.65,63.73,52.8,61.84,68.15,61A100.83,100.83,0,0,1,97,63.31c2.94.7,4.41,2.81,4.41,6.31a4.76,4.76,0,0,1-2.95,4.84q-12.23,5.46-29.11,5.47-6.75,0-23-1.27l-13.5-1q-7,23.56-7.81,41.23-.21,6.1.57,8.51a14.8,14.8,0,0,1,.77,3.06,7.67,7.67,0,0,0,2.45,2.52v.63a30.37,30.37,0,0,0,5.89.21q12.2-1.47,33.86-13.67l23.35-13a18.54,18.54,0,0,1,8-1.89,14.42,14.42,0,0,1,10.83,4.73,15.47,15.47,0,0,1,4.53,11q0,8.2-7.37,13.25-42.69,29.87-72.56,29.87-15.78,0-25.66-10.2T0,127.88q.21-20,12-51.53a33,33,0,0,0-6.4.11L.41,77.4,0,77.61l1-5.89q.57-3.15,3-3.36H4c.7,0,2.31.07,4.84.21a16.42,16.42,0,0,0,6.52-.84l1.89-4.42q4.2-9.89,8.62-20.09a132.59,132.59,0,0,1,10.1-19q-16.41-1.89-25-6.94a7.9,7.9,0,0,1-.84-2.74,1,1,0,0,1,.63-1q1.89-.42,27.34-3.15,8.63-.84,32.61-5.05Q78.87,3.58,100.33.42q4.2-.42,8-.42a41.88,41.88,0,0,1,15.14,2.52Q132.51,6.11,132.51,13.46ZM4,68.36H4Z"/></g></g></g></svg>