<svg xmlns="http://www.w3.org/2000/svg" viewBox="0 0 132.09 166.74"><title>N</title><g id="Livello_2" data-name="Livello 2"><g id="RESIN-A"><g id="N"><path d="M132.09,123.83a142.76,142.76,0,0,1-3.58,32.81q-2.1,8.63-11.56,8.63a11.68,11.68,0,0,1-5.89-1.69Q88.13,150.76,70,125.3,58.68,108.47,35.76,75q-1,19.14-2.94,42.7a234.41,234.41,0,0,1-6.11,39.33q-2.31,9.67-12.2,9.68a15.23,15.23,0,0,1-10.2-3.68A12,12,0,0,1,0,153.49a15.76,15.76,0,0,1,.42-3.79q5.27-20.82,8-54.68,3.16-41,5.69-54.9,1.68-9.25,12.42-9.25,5.89,0,9.27,3.57,13.26,13.65,29.26,38l26.5,40a183.29,183.29,0,0,0,17.18,20q.63-6.95.63-13.68,0-23.13-6.52-50.26Q100.33,59,95.7,40.33a127.18,127.18,0,0,1-3.79-29,74.76,74.76,0,0,1,.64-9.88Q95.07-.47,95.7.16q18.51,21.24,30.5,75.3Q132.08,102,132.09,123.83Z"/></g></g></g></svg>