<svg xmlns="http://www.w3.org/2000/svg" viewBox="0 0 959.75 274.85"><title>RESIN-A</title><g id="Livello_2" data-name="Livello 2"><g id="RESIN-A"><g id="A"><path d="M959.75,177.46q0,18.3-4.2,43.54l-7.15,43.12q-1.49,10.72-9.89,10.73-7.15,0-11.78-6.21A18.08,18.08,0,0,1,923,255.28l3.78-29.23q-6.74-.63-24.19-2.11a131.93,131.93,0,0,0-16.4-.21c-2.39.15-4.91.36-7.58.64v.84c.28-.14,1,0,2.11.42l-1.9,1.68-.21-2.1a.19.19,0,0,1-.21.21,288.79,288.79,0,0,0-7.57,34.7q-1.68,10.94-10.3,10.94a14,14,0,0,1-10.84-5.15,17.26,17.26,0,0,1-4.52-11.68q0-14.29,12.83-48.58,13.47-35.76,29.87-61.84,19.56-30.91,34.49-33,13.05-1.91,16.83,2.1Q959.75,135,959.75,177.46ZM934.3,170.1q0-33-10.3-33-8.21,0-18.93,20.82-5.48,11.15-18.93,39.33,16.4-.21,45.64.84Q934.3,186.72,934.3,170.1Z"/></g><path id="_-" data-name="-" d="M751.56,202.72c22.43-5.62,39.1,3.52,39.1,3.52-19-5.62-26.45-23.9-26.45-23.9,24.15,5.62,26.45,18.28,26.45,18.28-13.8-23.2,8.63-64,8.63-64,19.55,48.49-1.15,65.36-1.15,65.36,12.07-18.27,31.62-23.19,31.62-23.19-9.2,22.49-31.62,32.33-31.62,32.33,27.6-23.9,45.42-4.22,45.42-4.22-18.4,17.57-44.85,7-44.85,7,13.23-.7,22.43,11.95,22.43,11.95-16.1-.7-23-9.84-23-9.84-3.45,21.79-11.55,20.93-10.35,20.38,4.6-2.11,7.47-20.38,7.47-20.38s-11.5,12.65-23,12.65c0,0,7.48-12.65,22.43-14.06C794.69,214.67,769.39,225.22,751.56,202.72Z"/><g id="N"><path d="M741.49,224.66a142.21,142.21,0,0,1-3.58,32.81q-2.1,8.63-11.56,8.63a11.68,11.68,0,0,1-5.89-1.69q-22.94-12.83-41-38.28-11.36-16.83-34.28-50.27-1,19.14-2.94,42.7a235.48,235.48,0,0,1-6.1,39.33q-2.32,9.67-12.2,9.68a15.25,15.25,0,0,1-10.21-3.68,12,12,0,0,1-4.31-9.57,15.76,15.76,0,0,1,.42-3.79q5.26-20.82,8-54.68,3.15-41,5.68-54.9,1.68-9.25,12.42-9.25,5.9,0,9.27,3.57,13.26,13.65,29.26,38l26.5,40a182.28,182.28,0,0,0,17.19,20q.63-6.94.62-13.68,0-23.13-6.52-50.26-2.52-9.48-7.15-28.19a127.13,127.13,0,0,1-3.78-29,76.51,76.51,0,0,1,.63-9.88q2.52-1.89,3.15-1.26,18.51,21.24,30.5,75.3Q741.48,202.78,741.49,224.66Z"/></g><g id="_." data-name="."><path d="M619.36,74.74q-6.3-4.83-16.19-4.83-18.51,0-47.95,29.86a46.71,46.71,0,0,1,13.66-20.19q10.95-9.66,22.3-9.25c1.54-.42,2.45-.91,2.74-1.47l-.43-2.32a26.12,26.12,0,0,0-13.88-4q-14.93,0-27.34,14.09t-12.41,29.23A23.23,23.23,0,0,0,542,116q-5.25,9-5.26,16.83,0,11.14,8.21,11.14t10.73-6.73c1-2.38,2.31-5.32,4-8.83A42.34,42.34,0,0,0,567,129q12.42,0,32.39-11.78,24.2-14.3,26.09-27.55Q626.73,80.22,619.36,74.74ZM602.19,97.22a96.73,96.73,0,0,1-31.76,16.41Q587.67,94.07,603,89.44A28.25,28.25,0,0,0,607,88c1.12-.28,1.76,0,1.9.84Q609.12,92,602.19,97.22Z"/></g><g id="I"><path d="M592,149.08q0,17-1.05,51.22t-1,51.22a13.72,13.72,0,0,1-4.1,10.3,14.27,14.27,0,0,1-10.41,4,13.69,13.69,0,0,1-14.3-14.3q0-17,1.05-51.22t1-51.22q13.67-8.4,21.24-8.41T592,149.08Z"/></g><g id="S"><path d="M531.06,214.12a53,53,0,0,1-.84,9q-4.22,23.35-33,34.7-21.68,8.64-50.06,8.63-47.11,0-69.83-18.93-8.21-6.74-8.2-18.3,0-16.6,15.14-22.08,19.56-6.94,49.43-6.94,28,0,46.48,5.68c2,.56,2.95,2,2.95,4.2,0,2-1.13,4.42-3.37,7.36q-6.11,8-13.88,8a9.61,9.61,0,0,1-4-.85q-16-6.93-19.35-8a56.42,56.42,0,0,0-21-1.68q-4,.42-20.19,6.1-6.1,2.1-6.1,8.62,0,7.37,15.35,9,3.15.42,21.25.42a179,179,0,0,0,51.95-8,53.82,53.82,0,0,0,20.4-10.93q6.32-5.47,6.31-11.36,0-6.31-8-10.94-11.58-6.72-36-7.15,3.78.21-36.18,1-20.19.42-30.5-1.26-18.09-2.94-26.5-12.83a29.84,29.84,0,0,1-7.36-20,32,32,0,0,1,7.36-20.4,42.39,42.39,0,0,1,17.88-12.62A169.48,169.48,0,0,1,452,114q23.36,0,53.22,5.47l14.51,5.68a8.44,8.44,0,0,1,4.21,7.78A10.79,10.79,0,0,1,513,143.87q-5,0-20.4-3.16t-21.45-4q-23.14-3.16-40-1.69Q419,136.1,413.07,138q-8.2,2.52-16.41,9.88-6.53,5.69-6.52,10.73,0,4.84,6.31,8.41a24,24,0,0,0,10.31,3.16q13.46.21,40.17.84,23.55.63,40.17,4Q531.06,184,531.06,214.12Z"/></g><g id="E"><path d="M380.83,115.68q0,13.25-21.45,11.35-4.22-.42-15.36-1.26l-31.13.63q-3.15,0-12.41.21-4.62,12.21-14.51,39.33,15.15-1.89,30.5-2.73a100.76,100.76,0,0,1,28.81,2.31q4.43,1.06,4.42,6.31a4.76,4.76,0,0,1-2.95,4.84q-12.24,5.47-29.11,5.47-6.75,0-23-1.26l-13.49-1q-7,23.55-7.81,41.22-.21,6.1.56,8.52a14.38,14.38,0,0,1,.78,3.05,7.67,7.67,0,0,0,2.45,2.52v.63A29.75,29.75,0,0,0,283,236q12.2-1.47,33.86-13.68l23.35-13a18.51,18.51,0,0,1,8-1.89,14.47,14.47,0,0,1,10.83,4.73,15.52,15.52,0,0,1,4.52,11q0,8.19-7.36,13.24-42.71,29.88-72.56,29.87-15.78,0-25.66-10.2t-9.68-26q.21-20,12-51.54a34.71,34.71,0,0,0-6.4.11l-5.18,1-.41.21,1-5.89q.57-3.16,3-3.37h0c.7,0,2.31.07,4.84.21a16.42,16.42,0,0,0,6.52-.84l1.89-4.42q4.2-9.89,8.62-20.08a132.71,132.71,0,0,1,10.1-19q-16.41-1.89-25-6.94a7.93,7.93,0,0,1-.84-2.73,1,1,0,0,1,.63-1q1.89-.42,27.34-3.16,8.63-.84,32.6-5,8.2-1.68,29.66-4.83c2.8-.28,5.47-.43,8-.43a41.9,41.9,0,0,1,15.15,2.53Q380.82,108.31,380.83,115.68ZM252.32,170.57h0Z"/></g><g id="R"><path d="M271,257.44q0,5.37-6.32,8.52a24.46,24.46,0,0,1-11.06,2.53A33.16,33.16,0,0,1,241.3,266q-13.91-5.67-45.2-34.07-29.72-27.13-42.35-44.48a164.42,164.42,0,0,0-14.54-17.36l-10.75-3.78-1.9.63q-9.16,3.15-27.18,5.68v70.35A20.9,20.9,0,0,1,95,256.34c-2.91,3.68-7,5.52-12.18,5.52a14.75,14.75,0,0,1-12-5.52,20.41,20.41,0,0,1-4.54-13.41V174.15q-45.73-1.58-45.74-23.66a24.77,24.77,0,0,1,.63-5.36q4.45-20.19,17.79-25.56,4.77-1.89,27.32-3.15v-29q-.34-17.65-2.45-25.24a21.08,21.08,0,0,1-.7-5.68A15.89,15.89,0,0,1,67.52,45a15.07,15.07,0,0,1,11.35-4.58Q90.54,40.38,94,53q6,21.47,6.62,64.05,5,3.78,15.78,6.31,14.51,3.48,16.72,4.42,31.55-9.15,48.27-24,9.47-8.2,9.47-14.51,0-15.47-10.42-30.29T155.54,37.23q-24-11.35-59-11.36-25.54,0-45.43,11-6,3.17-27.13,15.78a16.76,16.76,0,0,1-8.21,2.52A13.63,13.63,0,0,1,4.42,49.38,20.68,20.68,0,0,1,0,36.6Q0,25.88,9.78,20.51,44.81.95,76.67,1q-5.06,0,6-.48T97.49,0q78.87,0,110.42,41.33,16.72,21.77,16.72,48,0,42-59.31,65.62,3.15,1.89,11.2,13.88T187.4,183.3l36,32.82q21.13,18.62,38.49,29.65Q271,251.46,271,257.44ZM63.1,154.91q.32-3.79.31-6.94,0-8.52-2.52-11.36-14.52,0-13.57,7.89.63,6.31,8.52,8.83Q61.21,155.22,63.1,154.91Z"/></g></g></g></svg>