<svg xmlns="http://www.w3.org/2000/svg" viewBox="0 0 915.24 327.77"><defs><style>.cls-1{fill:#fff;}</style></defs><title>SFONDO A</title><g id="Livello_2" data-name="Livello 2"><g id="SFONDO_A" data-name="SFONDO A"><path class="cls-1" d="M913.67,175.36s-1-68.77-54.73-71.7-83,80-83,80l-1.23,7.62-.77-12.62s-13.14-82.76-60-73c0,0-18.73,8.23-28,21.38-6.18,8.76-12.9,4.47-17.88-1.54A41.82,41.82,0,0,1,659.65,108c-3-13.31-9-46.73-60.71-44.38,0,0-41.33.29-55,53,0,0-77.63-22.8-125.46,1.6,0,0-10.74-34.16-65.4-15.62S276,109.47,276,109.47,305.25-4.73,137.36.15,2.66,77.26,2.66,77.26,13.4,99.71,50,100.2c0,0,20.5,5.86,2.93,21.47s-37,28.78-36.11,51.74c1.12,28.25,18,38.51,43,46.85l.17,4.4,2.75,49.28s3.91,42,44.9,40c25.37-1.2,34.47-17.95,39.35-44.3s2-42,2-42S214,313,276.46,315.92,379,286.63,379,286.63s35.13,37.09,101.51,30.26,72.23-29.28,72.23-29.28,24.4,51.73,59.54,14.64c0,0,29.28,31.24,58.57-6.83,0,0,3.9-13.67,14.64-12.69S716.67,320.8,749.86,311c9.49-2.79,16-6.54,20.51-10.47,8.58,14.75,23.2,25.91,44.57-2.91,0,0,11-14,19-6,6.8,6.79,8.24,50.88,48,31C925.94,300.66,913.67,175.36,913.67,175.36Z"/></g></g></svg>