<?xml version="1.0" encoding="utf-8"?>
<!-- Generator: Adobe Illustrator 24.0.0, SVG Export Plug-In . SVG Version: 6.00 Build 0)  -->
<svg version="1.1" xmlns="http://www.w3.org/2000/svg" xmlns:xlink="http://www.w3.org/1999/xlink" x="0px" y="0px"
	 viewBox="0 0 1920 1080" style="enable-background:new 0 0 1920 1080;" xml:space="preserve">
<style type="text/css">
	.st0{display:none;}
	.st1{display:inline;}
	.st2{fill:#FFFFFF;stroke:#000000;stroke-width:13;stroke-linecap:round;stroke-linejoin:round;stroke-miterlimit:10;}
	.st3{fill:#FFFFFF;}
	.st4{fill:#FFFFFF;stroke:#000000;stroke-linecap:round;stroke-linejoin:round;stroke-miterlimit:10;}
	.st5{display:inline;fill:#FFFFFF;}
</style>
<g id="Livello_30" class="st0">
	<rect x="-13" y="-1" class="st1" width="1943" height="1103"/>
</g>
<g id="Mano_DX">
	<g id="MDX_3">
		<path class="st2" d="M1515.2,646.6c0,0,25.5-27,8.7-74.3c0,0-14-13.4-39.8-0.6c0,0-14.5,2.5-15.7,42.8l-14.8,56.6
			c0,0-4.2,7.5,11.1,13.7c15.3,6.1,60.9,17.6,80.9,33.2c20,15.7,46.8,4.2,46.8,4.2s22.9-12.5,27.7-25.7c0,0,39.5-2.3,67-37.1
			c27.4-34.8,21.2-102.1,21.2-102.1s-5.2-10.2-0.5-17.1c0,0,26-37.8-33.1-83.6c0,0-55.6-35.2-73.4,16.5c0,0-22.3,1.2-45.8,30.7
			c0,0-37.2,52-30.1,72.1C1536.9,609.3,1518.1,651.3,1515.2,646.6z"/>
	</g>
	<g id="MDX_2">
		<g>
			<g>
				<path class="st3" d="M1610.4,617c0,0-3.2,20.2-35,25.5s-46.1-5.8-85.8,20.3s-24.2,60-2.5,64.1c24.1,4.6,46.5-13.1,49.1-15.3
					c0.1-0.1,0.3-0.2,0.4-0.4c1.1-1.5,12.3-12.8,87.8-13.7c0,0,0.1,0,0.1,0c1.6,0.1,38.6,1.2,67.9-40.9
					c28.4-40.8,16.5-102.6,15.2-109c0-0.2,0-0.4,0-0.7c-0.1-2.2-10.5-31.6-20.9-41.8"/>
				<path d="M1611,617.1c-1.4,6.5-5.5,11.9-10.4,16.1c-5,4.1-11,7-17.1,8.8c-6.2,1.8-12.5,2.9-18.9,3.4c-6.4,0.6-12.7,0.7-19,0.9
					c-6.3,0.2-12.4,0.7-18.4,2c-6,1.3-11.7,3.5-17.3,6c-2.8,1.4-5.5,2.7-8.2,4.3c-1.3,0.8-2.7,1.5-4,2.4l-3.9,2.5
					c-5.2,3.3-10,7.1-14.1,11.4c-2,2.2-3.9,4.5-5.5,6.9c-1.6,2.5-2.9,5-3.8,7.7c-1.9,5.4-2.1,11.1-0.5,16.4c1.5,5.3,4.9,9.9,9.4,13
					c2.2,1.5,4.6,2.7,7.2,3.3l1,0.2c0.3,0.1,0.6,0.1,1,0.2l2.1,0.2c1.4,0.2,2.8,0.2,4.3,0.2c5.7,0,11.5-1.1,17-3.2
					c5.5-2,10.9-4.8,15.8-8.1c1.2-0.8,2.5-1.7,3.6-2.6c0.6-0.4,1.2-0.9,1.7-1.3l0.2-0.2c0,0,0.1-0.1,0,0c0,0-0.1,0.1-0.1,0.1
					c-0.1,0.1-0.2,0.2-0.2,0.2c-0.1,0.1,0,0,0.1-0.1l0.2-0.2c0.1-0.2,0.3-0.3,0.4-0.5l0.3-0.3l0.7-0.6l1.3-1
					c0.4-0.3,0.8-0.5,1.3-0.8c0.8-0.5,1.6-0.9,2.5-1.3c0.8-0.4,1.6-0.7,2.4-1.1l1.2-0.5l1.2-0.4c6.4-2.3,12.8-3.6,19.2-4.8
					c12.8-2.2,25.5-3.4,38.3-4.2l9.6-0.5l9.5-0.4l2.4-0.1l0.6,0l0.3,0l0.6,0l0.4,0l0.5,0c1.3,0,2.7-0.2,4.1-0.4
					c0.7-0.1,1.4-0.2,2.1-0.3c0.7-0.1,1.4-0.2,2.1-0.4c1.4-0.4,2.8-0.6,4.2-1c11.1-3.1,21.5-8.9,30.4-16.5c2.3-1.8,4.3-4,6.5-6
					c1.1-1,2-2.2,3-3.2c1-1.1,2-2.2,3-3.3c1.9-2.3,3.7-4.7,5.5-7.1c0.9-1.2,1.6-2.4,2.5-3.6c0.8-1.2,1.5-2.5,2.3-3.8
					c5.9-10.1,9.6-21.7,11.9-33.6c2.4-11.9,3.1-24.2,3-36.6c-0.1-6.2-0.5-12.4-1-18.5c-0.2-1.5-0.3-3.1-0.5-4.6l-0.3-2.3l-0.2-1.1
					l-0.1-0.6l0-0.1l0-0.3l0-0.6l0-0.3c0-0.1,0-0.2,0-0.2c0,0,0,0,0,0c0,0,0,0,0-0.2l-0.2-1c-0.2-0.7-0.4-1.4-0.6-2.2
					c-0.4-1.5-0.9-2.9-1.4-4.4c-1.9-5.9-4.1-11.8-6.6-17.5c-2.5-5.7-5.3-11.3-9.2-16.2l0,0c-0.2-0.3-0.2-0.7,0.1-0.9
					c0.3-0.2,0.6-0.2,0.8,0c2.4,2.1,4.5,4.7,6.4,7.2c1.8,2.6,3.6,5.3,5.2,8.1c3.3,5.5,6.1,11.3,8.7,17.1c0.6,1.5,1.3,3,1.8,4.5
					c0.3,0.7,0.6,1.5,0.9,2.3l0.4,1.3c0.1,0.1,0.2,0.6,0.2,1l0.1,0.6c0,0.1,0,0.1,0,0.1l0,0c0,0,0,0,0,0c0,0,0,0,0,0l0,0.1l0.1,0.6
					l0.3,1.2l0.5,2.4c0.3,1.6,0.7,3.2,1,4.7c0.6,3.2,1.1,6.3,1.5,9.5c0.4,3.2,0.8,6.4,1.1,9.6c0.3,3.2,0.5,6.4,0.6,9.7
					c0.1,3.2,0.1,6.5,0.1,9.7c-0.1,6.5-0.6,13-1.5,19.5c-1.9,13-5.5,26-11.8,38c-0.8,1.5-1.7,3-2.5,4.4c-0.9,1.4-1.8,2.9-2.8,4.3
					c-2,2.7-3.9,5.4-6,8c-1.1,1.3-2.2,2.5-3.3,3.8c-1.1,1.2-2.2,2.6-3.4,3.7c-2.4,2.3-4.7,4.8-7.4,6.9c-1.3,1.1-2.6,2.2-3.9,3.2
					l-4.2,2.9c-0.7,0.5-1.4,1-2.1,1.4l-2.2,1.3l-2.2,1.3l-1.1,0.6l-1.1,0.6l-4.6,2.3l-4.7,1.9c-3.2,1.2-6.5,2.2-9.8,3.1
					c-1.7,0.4-3.4,0.7-5,1.1c-0.9,0.1-1.7,0.3-2.6,0.4c-0.9,0.1-1.7,0.2-2.6,0.3c-1.7,0.2-3.5,0.3-5.3,0.3l-0.7,0l-0.8,0l-0.2,0
					l0.2,0l-0.3,0l-0.6,0l-2.3,0l-9.4,0l-9.4,0.2c-12.5,0.4-24.9,1.2-37.1,2.9c-6,1-12.1,2.1-17.6,3.9l-1,0.3l-1,0.4
					c-0.6,0.3-1.3,0.5-1.9,0.8c-0.6,0.3-1.2,0.6-1.7,0.9c-0.3,0.1-0.5,0.3-0.8,0.4c-0.2,0.1-0.4,0.3-0.6,0.4l-0.2,0.2l-0.1,0.1
					c0,0,0,0,0,0l0,0c0,0,0-0.1-0.1,0.1c-0.2,0.2-0.4,0.5-0.6,0.7l-0.3,0.3c-0.1,0.1-0.1,0.1-0.2,0.1l-0.3,0.2
					c-0.7,0.5-1.4,1-2.1,1.5c-1.4,1-2.7,1.9-4.2,2.8c-5.6,3.6-11.7,6.5-18,8.7c-6.4,2.2-13.2,3.4-20.1,3.2c-1.7-0.1-3.5-0.1-5.2-0.4
					l-2.6-0.4c-0.8-0.1-1.8-0.4-2.7-0.6c-3.6-1-6.9-2.7-9.8-4.9c-5.8-4.3-10.1-10.6-11.9-17.5c-1.9-6.9-1.3-14.4,1.2-20.8
					c1.2-3.2,2.9-6.3,4.8-9.1c1.9-2.8,4.1-5.3,6.5-7.7c4.7-4.7,10.1-8.6,15.6-11.8l4.1-2.5c1.4-0.8,2.8-1.5,4.2-2.3
					c2.8-1.6,5.8-2.9,8.7-4.3c6-2.5,12.2-4.6,18.6-5.8c6.4-1.2,12.9-1.5,19.2-1.5c6.4,0,12.6,0.1,18.8-0.3
					c6.2-0.4,12.4-1.2,18.4-2.7c6-1.6,11.7-4,16.6-7.8c2.4-1.9,4.6-4.1,6.4-6.5l1.3-1.9c0.4-0.7,0.8-1.3,1.1-2
					c0.7-1.4,1.2-2.8,1.6-4.3l0-0.1c0.1-0.3,0.4-0.6,0.8-0.5C1610.9,616.4,1611.1,616.7,1611,617.1z"/>
			</g>
			<g>
				<path d="M1681.6,594.2c-0.1-2.8-0.1-5.2,0.1-7.4c0.1-2.2,0.4-4.3,0.7-6.3c0.2-1,0.4-1.9,0.7-2.9c0.3-1,0.7-1.8,1.1-2.8
					c0.4-0.9,0.9-1.9,1.3-2.8c0.3-1,0.7-2,1-3c0.3-1,0.4-2,0.6-3l0.3-1.5c0.1-0.5,0.1-1,0.2-1.6l0.4-3.2l0.2-3.2l0.1-1.6
					c0-0.5,0-1.1,0-1.6c0-1.1,0-2.2,0-3.3c0-1.1-0.1-2.2-0.2-3.4l-0.2-3.4l0-0.1c0-0.4,0.3-0.7,0.6-0.7c0.3,0,0.5,0.1,0.6,0.3
					c1.1,2,2.2,4.1,3.2,6.3c0.4,1.1,0.8,2.2,1.3,3.3c0.2,0.6,0.4,1.1,0.6,1.7l0.5,1.7l0.9,3.5l0.6,3.6c0.1,0.6,0.2,1.2,0.3,1.8
					l0.1,1.8c0,1.2,0.2,2.5,0.2,3.7c0,1.2,0,2.5,0.1,3.8c0,1.3,0,2.5-0.1,3.8c-0.2,2.5-0.9,5-2.1,7.3c-1.2,2.3-2.8,4.3-4.8,6.1
					c-2,1.7-4.3,3.3-7.2,4c-0.4,0.1-0.9-0.2-1-0.6c0,0,0-0.1,0-0.1L1681.6,594.2z"/>
			</g>
		</g>
	</g>
	<g id="MDX_1">
		<g>
			<path class="st3" d="M1592.6,585c0,0-6.7,4.4-10.6,14.9c-3.9,10.4-8.7,35-37.3,48c-28.7,13-65,6.5-43.2-34c0,0,10-14.4,20.9-26.4
				c0,0,12-28.4,17.4-48.3c0,0,11.3-55.8,64.1-64.7c0,0,44.9-10.8,72.4,16.4"/>
			<path d="M1592.6,585c-2.6,2.3-4.7,5.1-6.3,8c-1.6,3-2.8,6.1-3.7,9.4c-0.9,3.3-1.7,6.7-2.8,10c-1.1,3.3-2.4,6.7-3.9,9.9
				c-1.5,3.2-3.3,6.4-5.4,9.4c-2.1,3-4.5,5.7-7.1,8.3c-5.2,5.2-11.4,9.2-18,12.4c-6.6,3.1-13.7,5.4-21.1,6.3
				c-3.7,0.5-7.6,0.6-11.5,0.2c-3.9-0.4-8-1.3-11.9-3.4c-1.9-1-3.8-2.3-5.5-4c-1.7-1.6-3.1-3.6-4.2-5.7c-2.1-4.3-2.7-8.9-2.4-13
				c0.3-4.2,1.2-8,2.5-11.7c1.2-3.6,2.8-7,4.5-10.3c0.1-0.2,0.2-0.4,0.3-0.5l0.1-0.1c1.7-2.4,3.3-4.7,5-7c1.7-2.3,3.4-4.6,5.2-6.8
				c1.7-2.3,3.6-4.5,5.4-6.7c1.8-2.2,3.7-4.4,5.7-6.6l-1.2,1.8c3.5-8.5,6.9-17.2,10.1-25.9c1.6-4.3,3.1-8.7,4.6-13.1
				c0.4-1.1,0.7-2.2,1.1-3.3l0.5-1.6l0.5-1.5l0.5-1.5l0.1-0.2l0-0.1c0,0,0-0.1,0,0l0.1-0.5l0.2-1c0.3-1.3,0.7-2.5,1-3.7
				c1.5-4.8,3.4-9.4,5.5-13.9c2.1-4.5,4.6-8.8,7.4-12.9c2.8-4.1,5.9-8.1,9.3-11.7c3.4-3.6,7.2-7,11.3-9.9
				c8.1-5.9,17.5-10.1,27.1-12.3c2.4-0.5,4.9-1,7.2-1.3l1.8-0.3l1.8-0.3c1.2-0.2,2.4-0.3,3.6-0.4c4.8-0.5,9.7-0.6,14.5-0.4
				c4.8,0.2,9.6,0.7,14.4,1.6c4.7,0.9,9.4,2.2,13.9,4c4.5,1.8,8.8,4,12.7,6.7c3.9,2.7,7.5,5.9,10.6,9.4
				c-7.1-6.1-15.6-10.3-24.4-12.7c-8.9-2.4-18-3.2-27.1-2.7c-4.5,0.2-9.1,0.7-13.5,1.5c-1.1,0.2-2.2,0.4-3.3,0.6l-1.6,0.4l-1.7,0.4
				c-2.4,0.5-4.4,1.1-6.6,1.7c-4.2,1.3-8.3,3-12.2,5c-3.9,2.1-7.5,4.5-10.9,7.2c-13.5,11-22.9,27-27.8,43.9c-0.3,1-0.6,2.1-0.8,3.1
				l-0.2,0.7l-0.1,0.4l-0.1,0.2l0,0.1l-0.1,0.2l-0.5,1.8l-0.5,1.8l-0.5,1.7c-0.3,1.2-0.7,2.3-1,3.5c-1.4,4.6-2.9,9.1-4.6,13.6
				c-3.2,9-6.6,17.7-10.3,26.5l0,0c-0.3,0.7-0.7,1.3-1.2,1.8c-3.6,4-7.1,8.2-10.6,12.5c-1.7,2.1-3.4,4.3-5.1,6.5
				c-1.7,2.2-3.3,4.4-4.9,6.6l0.4-0.6c-1.5,2.8-2.9,5.7-4,8.5c-1.1,2.9-1.8,5.7-2.1,8.4c-0.3,2.7,0,5.1,0.9,7.1
				c0.9,2,2.4,3.6,4.6,4.9c2.2,1.3,4.9,2.1,7.8,2.6c2.9,0.5,6,0.5,9.1,0.3c6.3-0.5,12.6-2,18.6-4.3c6-2.4,11.7-5.6,16.7-9.7
				c5-4.1,9.3-9.1,12.7-14.8c3.5-5.7,6-11.9,8.6-18.4c1.3-3.2,3-6.5,5.1-9.3C1587.1,589.3,1589.6,586.8,1592.6,585z"/>
		</g>
		<path class="st4" d="M1724.8,622.9"/>
	</g>
</g>
<g id="Mano_DX_Rif">
	<g id="MDX_3_1_">
		<path class="st2" d="M434.6,647.6c0,0-25.5-27-8.7-74.3c0,0,14-13.4,39.8-0.6c0,0,14.5,2.5,15.7,42.8l14.8,56.6
			c0,0,4.2,7.5-11.1,13.7s-60.9,17.6-80.9,33.2c-20,15.7-46.8,4.2-46.8,4.2s-22.9-12.5-27.7-25.7c0,0-39.5-2.3-67-37.1
			c-27.4-34.8-21.2-102.1-21.2-102.1s5.2-10.2,0.5-17.1c0,0-26-37.8,33.1-83.6c0,0,55.6-35.2,73.4,16.5c0,0,22.3,1.2,45.8,30.7
			c0,0,37.2,52,30.1,72.1C412.8,610.3,431.7,652.3,434.6,647.6z"/>
	</g>
	<g id="MDX_2_1_">
		<g>
			<g>
				<path class="st3" d="M339.4,618c0,0,3.2,20.2,35,25.5s46.1-5.8,85.8,20.3s24.2,60,2.5,64.1c-24.1,4.6-46.5-13.1-49.1-15.3
					c-0.1-0.1-0.3-0.2-0.4-0.4c-1.1-1.5-12.3-12.8-87.8-13.7c0,0-0.1,0-0.1,0c-1.6,0.1-38.6,1.2-67.9-40.9
					c-28.4-40.8-16.5-102.6-15.2-109c0-0.2,0-0.4,0-0.7c0.1-2.2,10.5-31.6,20.9-41.8"/>
				<path d="M340,617.9c0.3,1.4,0.9,2.9,1.6,4.3c0.3,0.7,0.7,1.3,1.1,2l1.3,1.9c1.8,2.5,4,4.6,6.4,6.5c4.9,3.7,10.7,6.2,16.6,7.8
					c6,1.5,12.2,2.3,18.4,2.7c6.2,0.4,12.5,0.2,18.8,0.3c6.3,0,12.8,0.3,19.2,1.5c6.4,1.2,12.6,3.3,18.6,5.8
					c2.9,1.4,5.9,2.7,8.7,4.3c1.4,0.8,2.9,1.5,4.2,2.3l4.1,2.5c5.5,3.3,10.9,7.2,15.6,11.8c2.3,2.4,4.6,4.9,6.5,7.7
					c1.9,2.8,3.6,5.8,4.8,9.1c2.5,6.5,3.1,13.9,1.2,20.8c-1.8,6.9-6.1,13.2-11.9,17.5c-2.9,2.2-6.2,3.9-9.8,4.9
					c-0.9,0.2-1.8,0.5-2.7,0.6l-2.6,0.4c-1.7,0.3-3.4,0.3-5.2,0.4c-6.9,0.2-13.7-1-20.1-3.2c-6.4-2.2-12.4-5.1-18-8.7
					c-1.4-0.9-2.8-1.8-4.2-2.8c-0.7-0.5-1.4-1-2.1-1.5l-0.3-0.2c-0.1-0.1,0,0-0.2-0.1L410,716c-0.2-0.2-0.4-0.4-0.6-0.7
					c-0.1-0.2-0.1-0.1-0.1-0.1l0,0c0,0,0,0,0,0l-0.1-0.1l-0.2-0.2c-0.2-0.1-0.4-0.3-0.6-0.4c-0.2-0.1-0.5-0.3-0.8-0.4
					c-0.5-0.3-1.1-0.6-1.7-0.9c-0.6-0.3-1.3-0.5-1.9-0.8l-1-0.4l-1-0.3c-5.5-1.8-11.6-3-17.6-3.9c-12.2-1.7-24.6-2.5-37.1-2.9
					l-9.4-0.2l-9.4,0l-2.3,0l-0.6,0l-0.3,0l0.2,0l-0.2,0l-0.8,0l-0.7,0c-1.9,0-3.6-0.1-5.3-0.3c-0.9-0.1-1.7-0.2-2.6-0.3
					c-0.9-0.1-1.7-0.2-2.6-0.4c-1.7-0.4-3.4-0.6-5-1.1c-3.3-0.8-6.6-1.9-9.8-3.1l-4.7-1.9l-4.6-2.3l-1.1-0.6l-1.1-0.6l-2.2-1.3
					l-2.2-1.3c-0.7-0.4-1.4-1-2.1-1.4l-4.2-2.9c-1.3-1-2.6-2.1-3.9-3.2c-2.7-2.1-5-4.5-7.4-6.9c-1.2-1.1-2.3-2.4-3.4-3.7
					c-1.1-1.3-2.2-2.5-3.3-3.8c-2.1-2.6-4-5.3-6-8c-1-1.4-1.9-2.8-2.8-4.3c-0.9-1.5-1.7-2.9-2.5-4.4c-6.3-12-10-25-11.8-38
					c-0.9-6.5-1.4-13-1.5-19.5c-0.1-3.2,0-6.5,0.1-9.7c0.1-3.2,0.3-6.5,0.6-9.7c0.3-3.2,0.6-6.4,1.1-9.6c0.4-3.2,0.9-6.4,1.5-9.5
					c0.3-1.6,0.6-3.2,1-4.7l0.5-2.4l0.3-1.2l0.1-0.6l0-0.1c0,0,0,0,0,0c0,0,0,0,0,0l0,0c0,0,0,0,0-0.1l0.1-0.6
					c0.1-0.4,0.2-0.8,0.2-1l0.4-1.3c0.3-0.8,0.6-1.6,0.9-2.3c0.6-1.5,1.2-3,1.8-4.5c2.6-5.9,5.4-11.6,8.7-17.1
					c1.6-2.8,3.4-5.5,5.2-8.1c2-2.6,4-5.1,6.4-7.2c0.3-0.2,0.7-0.2,0.9,0.1c0.2,0.2,0.2,0.6,0,0.8l0,0c-3.9,4.8-6.7,10.5-9.2,16.2
					c-2.5,5.7-4.7,11.6-6.6,17.5c-0.5,1.5-0.9,3-1.4,4.4c-0.2,0.7-0.4,1.5-0.6,2.2l-0.2,1c-0.1,0.2,0,0.2,0,0.2c0,0,0,0,0,0
					c0,0,0,0.1,0,0.2l0,0.3l0,0.6l0,0.3l0,0.1l-0.1,0.6l-0.2,1.1l-0.3,2.3c-0.2,1.5-0.4,3.1-0.5,4.6c-0.6,6.2-1,12.4-1,18.5
					c-0.1,12.3,0.7,24.7,3,36.6c2.3,11.9,6,23.4,11.9,33.6c0.8,1.2,1.5,2.5,2.3,3.8c0.8,1.2,1.6,2.4,2.5,3.6
					c1.8,2.3,3.6,4.8,5.5,7.1c1,1.1,2,2.2,3,3.3c1,1.1,1.9,2.3,3,3.2c2.1,2,4.2,4.2,6.5,6c8.9,7.6,19.3,13.4,30.4,16.5
					c1.4,0.4,2.8,0.7,4.2,1c0.7,0.1,1.4,0.3,2.1,0.4c0.7,0.1,1.4,0.3,2.1,0.3c1.4,0.2,2.8,0.3,4.1,0.4l0.5,0l0.4,0l0.6,0l0.3,0
					l0.6,0l2.4,0.1l9.5,0.4l9.6,0.5c12.7,0.8,25.5,2,38.3,4.2c6.4,1.2,12.8,2.5,19.2,4.8l1.2,0.4l1.2,0.5c0.8,0.4,1.6,0.6,2.4,1.1
					c0.8,0.4,1.6,0.8,2.5,1.3c0.4,0.3,0.8,0.5,1.3,0.8l1.3,1l0.7,0.6l0.3,0.3c0.1,0.1,0.3,0.3,0.4,0.5l0.2,0.2
					c0.1,0.1,0.2,0.2,0.1,0.1c-0.1-0.1-0.1-0.2-0.2-0.2c0,0-0.1-0.1-0.1-0.1c-0.1-0.1,0,0,0,0l0.2,0.2c0.5,0.4,1.1,0.9,1.7,1.3
					c1.2,0.9,2.4,1.8,3.6,2.6c4.9,3.3,10.3,6.1,15.8,8.1c5.5,2,11.3,3.2,17,3.2c1.4,0,2.9,0,4.3-0.2l2.1-0.2c0.4,0,0.7-0.1,1-0.2
					l1-0.2c2.5-0.6,5-1.8,7.2-3.3c4.4-3.1,7.8-7.7,9.4-13c1.6-5.2,1.3-11-0.5-16.4c-0.9-2.7-2.3-5.3-3.8-7.7
					c-1.5-2.5-3.5-4.7-5.5-6.9c-4.1-4.3-8.9-8.1-14.1-11.4l-3.9-2.5c-1.3-0.8-2.7-1.6-4-2.4c-2.6-1.6-5.4-2.9-8.2-4.3
					c-5.6-2.6-11.3-4.7-17.3-6c-6-1.3-12.1-1.8-18.4-2c-6.3-0.2-12.6-0.3-19-0.9c-6.4-0.6-12.7-1.6-18.9-3.4
					c-6.2-1.9-12.1-4.7-17.1-8.8c-4.9-4.2-9-9.6-10.4-16.1c-0.1-0.4,0.1-0.7,0.5-0.8C339.6,617.2,339.9,617.4,340,617.9L340,617.9z"
					/>
			</g>
			<g>
				<path d="M267.1,596c-2.9-0.7-5.2-2.2-7.2-4c-1.9-1.8-3.6-3.8-4.8-6.1c-1.3-2.2-1.9-4.7-2.1-7.3c0-1.3-0.1-2.5-0.1-3.8
					c0-1.3,0.1-2.5,0.1-3.8c0-1.2,0.1-2.5,0.2-3.7l0.1-1.8c0.1-0.6,0.2-1.2,0.3-1.8l0.6-3.6l0.9-3.5l0.5-1.7
					c0.2-0.6,0.4-1.1,0.6-1.7c0.4-1.1,0.8-2.2,1.3-3.3c0.9-2.2,2.1-4.2,3.2-6.3c0.2-0.3,0.6-0.4,0.9-0.3c0.2,0.1,0.4,0.4,0.3,0.6
					l0,0.1l-0.2,3.4c-0.1,1.1-0.2,2.2-0.2,3.4c0,1.1,0,2.2,0,3.3c0,0.5,0,1.1,0,1.6l0.1,1.6l0.2,3.2l0.4,3.2c0.1,0.5,0.1,1,0.2,1.6
					l0.3,1.5c0.2,1,0.3,2.1,0.6,3c0.3,1,0.6,2,1,3c0.4,1,0.9,1.9,1.3,2.8c0.4,0.9,0.8,1.8,1.1,2.8c0.3,1,0.5,1.9,0.7,2.9
					c0.3,2,0.6,4,0.7,6.3c0.2,2.2,0.2,4.6,0.1,7.4l0,0.1c0,0.4-0.4,0.8-0.8,0.8C267.2,596.1,267.2,596.1,267.1,596z"/>
			</g>
		</g>
	</g>
	<g id="MDX_1_1_">
		<g>
			<path class="st3" d="M357.2,586c0,0,6.7,4.4,10.6,14.9c3.9,10.4,8.7,35,37.3,48c28.7,13,65,6.5,43.2-34c0,0-10-14.4-20.9-26.4
				c0,0-12-28.4-17.4-48.3c0,0-11.3-55.8-64.1-64.7c0,0-44.9-10.8-72.4,16.4"/>
			<path d="M357.2,586c3,1.8,5.5,4.4,7.6,7.2c2.2,2.8,3.8,6,5.1,9.3c2.6,6.5,5.1,12.7,8.6,18.4c3.5,5.7,7.7,10.7,12.7,14.8
				c5,4.1,10.7,7.3,16.7,9.7c6,2.4,12.4,3.9,18.6,4.3c3.1,0.2,6.2,0.2,9.1-0.3c2.9-0.5,5.7-1.3,7.8-2.6c2.2-1.3,3.7-2.9,4.6-4.9
				c0.9-2,1.2-4.4,0.9-7.1c-0.3-2.7-1-5.6-2.1-8.4c-1.1-2.9-2.5-5.7-4-8.5l0.4,0.6c-1.6-2.2-3.2-4.4-4.9-6.6
				c-1.7-2.2-3.4-4.4-5.1-6.5c-3.4-4.3-6.9-8.5-10.6-12.5c-0.5-0.5-0.9-1.2-1.2-1.8l0,0c-3.7-8.8-7.1-17.6-10.3-26.5
				c-1.6-4.5-3.2-9-4.6-13.6c-0.4-1.1-0.7-2.3-1-3.5l-0.5-1.7l-0.5-1.8l-0.5-1.8l-0.1-0.2l0-0.1l-0.1-0.2l-0.1-0.4l-0.2-0.7
				c-0.2-1-0.5-2.1-0.8-3.1c-4.9-16.8-14.2-32.8-27.8-43.9c-3.4-2.7-7-5.2-10.9-7.2c-3.9-2.1-8-3.7-12.2-5c-2.1-0.6-4.2-1.2-6.6-1.7
				l-1.7-0.4l-1.6-0.4c-1.1-0.2-2.2-0.5-3.3-0.6c-4.5-0.8-9-1.3-13.5-1.5c-9.1-0.5-18.3,0.3-27.1,2.7c-8.8,2.4-17.3,6.6-24.4,12.7
				c3.1-3.6,6.7-6.7,10.6-9.4c3.9-2.7,8.2-4.9,12.7-6.7c4.5-1.8,9.2-3.1,13.9-4c4.7-0.9,9.6-1.4,14.4-1.6c4.8-0.2,9.7,0,14.5,0.4
				c1.2,0.1,2.4,0.3,3.6,0.4l1.8,0.3l1.8,0.3c2.3,0.3,4.8,0.8,7.2,1.3c9.7,2.2,19,6.4,27.1,12.3c4.1,3,7.8,6.3,11.3,9.9
				c3.4,3.6,6.5,7.6,9.3,11.7c2.8,4.1,5.2,8.5,7.4,12.9c2.1,4.5,4,9.1,5.5,13.9c0.4,1.2,0.7,2.4,1,3.7l0.2,1l0.1,0.5c0-0.2,0,0,0,0
				l0,0.1l0.1,0.2l0.5,1.5l0.5,1.5l0.5,1.6c0.3,1.1,0.7,2.2,1.1,3.3c1.4,4.4,3,8.7,4.6,13.1c3.2,8.7,6.6,17.4,10.1,25.9l-1.2-1.8
				c1.9,2.2,3.8,4.3,5.7,6.6c1.8,2.2,3.7,4.4,5.4,6.7c1.8,2.3,3.5,4.5,5.2,6.8c1.7,2.3,3.3,4.6,5,7l0,0.1c0.1,0.2,0.2,0.4,0.3,0.5
				c1.7,3.3,3.3,6.7,4.5,10.3c1.2,3.6,2.2,7.5,2.5,11.7c0.3,4.1-0.3,8.8-2.4,13c-1.1,2.1-2.5,4.1-4.2,5.7c-1.7,1.6-3.6,2.9-5.5,4
				c-3.9,2-8,3-11.9,3.4c-3.9,0.4-7.7,0.2-11.5-0.2c-7.5-1-14.5-3.2-21.1-6.3c-6.6-3.2-12.8-7.3-18-12.4c-2.6-2.6-5-5.3-7.1-8.3
				c-2.1-3-3.9-6.1-5.4-9.4c-1.5-3.2-2.8-6.6-3.9-9.9c-1.1-3.4-1.9-6.7-2.8-10c-0.9-3.3-2-6.4-3.7-9.4
				C361.8,591,359.8,588.3,357.2,586z"/>
		</g>
		<path class="st4" d="M224.9,623.9"/>
	</g>
</g>
<g id="Mano_SX" class="st0">
	<g id="MSX_3" class="st1">
		<path class="st2" d="M236.3,615.7c0,0-37.3,4.6-34.1-80.8c0,0,4.7-48.9,55.6-60.7c0,0,30.9-1.8,33.3,23.1
			C293.6,522.2,296.1,609.1,236.3,615.7z"/>
	</g>
	<g id="MSX_2" class="st1">
		<g>
			<path class="st3" d="M235.5,571.6c0,0-10,62.7,28.1,104.9c38.1,42.3,49.7,68.8,49.7,68.8l24.6,57.7c0,0,16.7,31.1,48.5,17.6
				c31.9-13.5,0.2-79.2,0.2-79.2S356.8,638.3,355,550.2c0,0,78.2-45.6,57-112.4c0,0-8.5-22.7-27.1-20c0,0-15.2-4.6-30.3,43.5
				c0,0-1.2,21.5-58.5,33.2c0,0-23.3,10.7-51,47.4"/>
			<path d="M235.5,571.6c-0.7,10.8-0.2,21.6,1.3,32.2c1.4,10.6,4,21,7.6,30.9c3.7,9.9,8.5,19.2,14.7,27.4c1.5,2.1,3.1,4.1,4.8,6
				c0.8,1,1.7,1.9,2.6,2.8l2.7,2.8l5.7,5.9c1.9,2,3.7,4,5.5,6.1c1.8,2.1,3.5,4.3,5.2,6.4c1.7,2.1,3.4,4.3,5.1,6.5
				c3.4,4.3,6.7,8.8,9.9,13.3c3.2,4.5,6.3,9.1,9.2,13.8c2.9,4.7,5.8,9.5,8.3,14.7c0.3,0.7,0.6,1.3,1,2.1l0.8,1.9l1.6,3.7l3.2,7.5
				l6.4,14.9l12.7,29.9l-0.3-0.5l0.4,0.6l0.5,0.8c0.3,0.5,0.7,1.1,1.1,1.6c0.8,1,1.6,2.1,2.4,3.1c1.7,2,3.6,3.8,5.6,5.3
				c4,3.1,8.5,5.2,13.3,5.9c4.7,0.7,9.7,0.1,14.6-1.6c1.2-0.4,2.5-1,3.4-1.4c0.9-0.5,1.8-1,2.6-1.7c0.8-0.6,1.5-1.4,2.2-2.2
				c0.6-0.8,1.2-1.7,1.7-2.7c2-3.9,2.8-9.1,2.7-14.4c-0.1-5.4-0.9-10.9-2.1-16.5c-1.2-5.5-2.9-11.1-4.8-16.5c-1-2.7-2-5.4-3-8.1
				c-0.5-1.3-1.1-2.7-1.7-4c-0.6-1.3-1.2-2.7-1.7-3.9l0-0.1c-0.1-0.3-0.3-0.6-0.4-0.9c-2.3-8-4.3-15.8-6.3-23.7
				c-2-7.9-3.8-15.8-5.6-23.8c-3.6-15.9-6.8-31.9-9.6-47.9c-2.8-16.1-5.2-32.2-7-48.4c-0.9-8.1-1.7-16.3-2.3-24.4
				c-0.6-8.2-1-16.4-1.2-24.6c-0.1-2.4,1.2-4.6,3.1-5.7l0.1,0c0.6-0.3,1.4-0.8,2-1.3l2.1-1.4c1.4-1,2.8-1.9,4.2-3
				c2.8-2,5.5-4.1,8.2-6.3c5.3-4.4,10.4-9.1,15-14.2c9.3-10.1,17-21.5,21.5-34c2.3-6.2,3.7-12.7,4.1-19.2c0.4-6.5-0.1-13.1-1.6-19.5
				c-0.4-1.6-0.8-3.2-1.2-4.7l-0.3-1.1c0.1,0.2,0,0.1,0,0.1l0-0.1l-0.1-0.2l-0.2-0.5c-0.3-0.7-0.6-1.4-1-2c-1.4-2.7-3.2-5.3-5.2-7.4
				c-2-2.1-4.2-3.7-6.4-4.7c-2.3-1-4.6-1.2-7.1-0.9l-2.8-0.2l0.3,0.1l0.1,0l0.1,0l0.1,0l0.1,0c0,0,0,0,0,0c-0.1,0-0.3,0-0.5,0.1
				c-0.4,0.1-1,0.4-1.6,0.7c-1.2,0.7-2.6,1.9-3.9,3.3c-2.6,2.8-4.9,6.4-6.9,10.2c-2,3.8-3.9,7.8-5.5,12c-1.6,4.2-3.1,8.4-4.4,12.8
				l0.3-1.6l0,0.4l0,0.2l0,0.3l-0.1,0.5c-0.1,0.3-0.1,0.6-0.2,0.9c-0.1,0.6-0.3,1.1-0.5,1.6c-0.3,1-0.7,1.9-1.2,2.8
				c-0.9,1.8-1.9,3.3-3,4.8c-2.2,2.9-4.8,5.2-7.4,7.2c-5.4,4-11.1,6.7-16.8,9c-5.8,2.3-11.6,4-17.5,5.5c-5.9,1.4-11.7,2.6-17.6,3.5
				l0.9-0.3c-0.5,0.2-1.1,0.5-1.7,0.8c-0.6,0.3-1.2,0.6-1.8,0.9c-1.2,0.7-2.5,1.3-3.7,2.1c-2.4,1.4-4.8,3-7.2,4.6
				c-4.7,3.3-9.2,6.8-13.6,10.6l-3.3,2.9c-1.1,1-2.1,2-3.2,3c-2.2,1.9-4.2,4-6.2,6.1c-2.1,2.1-4,4.2-6,6.3l-5.8,6.6
				c1.7-2.4,3.3-4.8,5-7.2c1.8-2.3,3.5-4.7,5.3-7c1.8-2.3,3.6-4.6,5.6-6.9c1-1.1,1.9-2.3,2.9-3.4l3-3.3c4-4.3,8.3-8.5,12.8-12.4
				c2.3-1.9,4.6-3.8,7-5.6c1.2-0.9,2.5-1.8,3.7-2.6c0.6-0.4,1.3-0.8,1.9-1.3c0.7-0.4,1.3-0.8,2.1-1.2c0.1-0.1,0.3-0.1,0.4-0.2
				l0.4-0.1c5.6-1.4,11.1-3.1,16.5-4.9c5.4-1.9,10.6-4,15.5-6.6c2.5-1.3,4.8-2.6,7.1-4.1c2.2-1.5,4.4-3.1,6.2-4.8
				c1.9-1.7,3.6-3.5,4.9-5.2c0.7-0.9,1.3-1.8,1.7-2.6c0.2-0.4,0.4-0.8,0.6-1.2c0.1-0.2,0.1-0.4,0.2-0.5c0-0.1,0-0.1,0-0.2l0,0l0,0.3
				l0.3-1.6c1.5-4.5,3-9.1,4.8-13.6c1.8-4.5,3.8-9,6.1-13.4c2.4-4.4,5.1-8.8,8.8-12.8c1.9-2,4-4,6.8-5.7c1.4-0.8,2.9-1.6,4.7-2.1
				c0.9-0.3,1.9-0.5,2.9-0.6c0.5-0.1,1.1-0.1,1.7,0c0.3,0,0.6,0,1,0.1c0.2,0,0.4,0.1,0.6,0.1l0.4,0.1l0.2,0l0.4,0.1l-2.8-0.2
				c4.6-0.7,9.6-0.1,14,1.7c4.4,1.8,8,4.7,10.9,7.8c2.9,3.1,5.2,6.6,7.2,10.2c0.5,0.9,0.9,1.8,1.4,2.8l0.3,0.7l0.2,0.4l0.2,0.6
				l0.4,1.5c0.6,2,1.1,3.8,1.5,5.7c1.7,7.6,2.4,15.5,1.9,23.3c-0.5,7.8-2.2,15.5-4.9,22.8c-5.3,14.6-14.1,27.3-24.2,38.4
				c-5.1,5.5-10.5,10.6-16.3,15.4c-2.9,2.4-5.8,4.7-8.8,6.9c-1.5,1.1-3,2.2-4.6,3.2l-2.4,1.6c-0.8,0.5-1.6,1-2.5,1.6l3.2-5.8
				c0.2,8,0.6,15.9,1.1,23.9c0.6,8,1.3,16,2.2,23.9c1.8,15.9,4.1,31.8,6.9,47.7c2.8,15.8,5.9,31.6,9.5,47.3
				c1.8,7.8,3.6,15.7,5.6,23.5c1.9,7.8,4,15.6,6.1,23.2l-0.4-1c0.7,1.5,1.3,2.9,2,4.4c0.6,1.4,1.2,2.9,1.8,4.3
				c1.2,2.9,2.2,5.8,3.3,8.7c2,5.9,3.8,11.8,5.2,18c1.4,6.2,2.3,12.5,2.4,19.1c0,3.3-0.1,6.7-0.8,10.2c-0.6,3.4-1.6,7-3.4,10.4
				c-0.9,1.7-1.9,3.3-3.2,4.9c-1.2,1.5-2.7,2.9-4.2,4.2c-1.5,1.2-3.2,2.3-4.9,3.1c-1.8,0.9-3.3,1.4-4.9,2
				c-6.4,2.3-13.7,3.3-20.8,2.2c-7.2-1.1-13.8-4.2-19.3-8.4c-2.7-2.1-5.2-4.5-7.4-7c-1.1-1.3-2.2-2.6-3.2-4c-0.5-0.7-1-1.4-1.5-2.1
				l-0.7-1.1l-0.4-0.6l-0.4-0.7c-0.1-0.1-0.1-0.3-0.2-0.4l0-0.1l-12.7-29.9l-6.4-14.9l-3.2-7.5l-1.6-3.7l-0.8-1.8
				c-0.2-0.4-0.5-1-0.8-1.6c-2.3-4.5-4.9-9.1-7.7-13.5c-2.8-4.5-5.8-8.9-8.8-13.2c-3.1-4.3-6.2-8.6-9.5-12.8
				c-3.2-4.2-6.8-8.2-10.2-12.3c-1.7-2-3.4-4.1-5-6.2l-5-6.3l-2.6-3.3c-0.9-1.1-1.8-2.3-2.6-3.4c-1.7-2.3-3.3-4.7-4.7-7.1
				c-5.9-9.8-10.2-20.3-13-31.1c-2.8-10.8-4.2-21.8-4.5-32.8c-0.1-5.5,0-11,0.4-16.4C233.8,582.3,234.4,576.9,235.5,571.6z"/>
		</g>
		<g>
			<path d="M246.2,610.6c1.8,2.7,3.5,5.4,5.3,8c1.8,2.6,3.6,5,5.4,7.4c0.9,1.2,2.1,2.1,3.2,3.1c1.1,0.9,1.9,2,2.4,3.2
				c0.5,1.2,0.9,2.6,1.2,4.1c0.3,1.5,0.6,3.2,1.1,5.6l0,0.1c0.1,0.5-0.2,0.9-0.6,1.1c-2.3,0.9-4.6,0.7-6.6,0.1
				c-2-0.6-3.8-1.6-5.2-2.8c-1.5-1.2-2.5-2.7-3.1-4.5c-0.6-1.7-1-3.5-1.5-5.1c-1.1-3.3-1.8-6.6-2.3-9.9c-0.4-3.3-0.7-6.6-0.5-10
				c0-0.4,0.3-0.7,0.7-0.6C245.9,610.2,246.1,610.4,246.2,610.6L246.2,610.6z"/>
		</g>
		<g>
			<path d="M247.7,589.6c2.5,3.1,5.1,6.1,7.7,9c2.6,2.9,5.3,5.6,8,8.2c1.3,1.3,2.9,2.3,4.4,3.3c1.5,1,2.7,2.1,3.8,3.5
				c1,1.4,2,2.9,2.9,4.5c1,1.7,1.9,3.4,3.1,5.8l0,0c0.2,0.4,0,1-0.4,1.2c0,0,0,0,0,0c-2.5,1.1-5.1,1.2-7.5,0.8
				c-2.4-0.4-4.6-1.3-6.6-2.4c-2-1.2-3.6-2.7-4.7-4.6c-1.2-1.9-2.1-3.8-3.2-5.6c-2.2-3.6-3.9-7.4-5.4-11.2
				c-1.4-3.9-2.6-7.8-3.4-11.8c-0.1-0.4,0.2-0.7,0.5-0.8C247.3,589.3,247.6,589.4,247.7,589.6L247.7,589.6z"/>
		</g>
		<g>
			<path d="M258.1,580.2c2.6,1.2,5.2,2.2,7.8,3.1c2.6,0.8,5.1,1.5,7.6,2.1c0.6,0.1,1.2,0.2,1.9,0.2l1.9,0c0.6,0,1.2,0,1.8,0.2
				c0.6,0.2,1.1,0.4,1.6,0.7c0.5,0.3,1,0.7,1.5,1.1c0.5,0.4,1.1,0.8,1.6,1.4c0.3,0.3,0.6,0.6,0.8,0.9c0.3,0.3,0.6,0.6,0.9,0.9
				c0.6,0.7,1.2,1.4,1.9,2.4l0,0c0.3,0.4,0.2,0.9,0,1.3c-0.7,1-1.5,1.6-2.2,2.2c-0.4,0.3-0.8,0.6-1.2,0.8c-0.4,0.2-0.8,0.4-1.2,0.6
				c-0.8,0.4-1.7,0.6-2.5,0.8c-0.8,0.1-1.7,0.2-2.5,0.2c-1.7,0.1-3.3-0.5-4.6-1.4c-1.4-0.9-2.6-2-3.9-2.9c-2.6-1.8-4.9-3.9-6.9-6.2
				c-2-2.3-3.7-4.8-5.1-7.5c-0.2-0.3,0-0.7,0.3-0.9C257.7,580.1,257.9,580.1,258.1,580.2L258.1,580.2z"/>
		</g>
	</g>
	<g id="MSX_1" class="st1">
		<g>
			<g>
				<path class="st3" d="M320.9,686.7c0,0,103.4,104.5,146.6,49.5c0,0,13.6-37.3-34.3-57.1c0,0-69.7-18.1-81.2-68.3"/>
				<path d="M320.9,686.7c12,8.2,24.1,16,36.3,23.1c3.2,1.6,5.6,4.2,8.5,6.2c2.8,2.1,5.7,4,8.6,6c5.8,3.9,11.8,7.5,17.9,10.7
					c6.1,3.3,12.3,6.1,18.7,8.4c6.4,2.3,12.8,3.9,19.2,4.4c6.4,0.5,12.6-0.2,18.1-2.4c5.5-2.2,10.3-6.1,14.2-10.9l-1,1.8l0.2-0.6
					c0.1-0.3,0.2-0.6,0.2-0.9c0.1-0.6,0.3-1.2,0.4-1.9c0.2-1.3,0.4-2.6,0.5-3.9c0.2-2.6,0.1-5.2-0.3-7.8c-0.7-5.1-2.7-10-5.5-14.4
					c-1.5-2.2-3.2-4.2-5-6.1c-1-0.9-1.9-1.9-3-2.7c-0.5-0.4-1-0.9-1.6-1.3l-1.7-1.2c-4.5-3.2-9.5-5.9-14.8-8.1l0.8,0.3
					c-1.3-0.4-2.4-0.7-3.6-1.1c-1.2-0.4-2.3-0.7-3.5-1.1c-2.3-0.8-4.5-1.6-6.8-2.4c-4.5-1.7-8.9-3.6-13.2-5.7
					c-8.6-4.2-17-9-24.9-14.8c-1-0.7-1.9-1.5-2.9-2.2l-2.9-2.2c-1-0.8-1.9-1.5-2.7-2.5c-0.8-0.9-1.6-1.9-2.4-2.8
					c-3.1-3.9-5.9-7.9-8.4-12.2c-2.4-4.3-4.3-8.8-5.8-13.4c-0.7-2.3-1.3-4.6-1.7-7c-0.5-2.3-0.6-4.7-0.9-7c1.9,4.3,4.1,8.4,6.6,12.1
					c2.6,3.7,5.5,7.1,8.6,10.3c3.2,3.1,6.5,5.9,10,8.5c1.8,1.3,3.6,2.4,5.2,4c0.4,0.4,0.8,0.8,1.2,1.1c0.4,0.4,0.8,0.7,1.3,1
					c0.9,0.7,1.7,1.4,2.6,2c7,5.2,14.7,9.7,22.7,13.5c4,1.9,8.1,3.7,12.3,5.3c2.1,0.8,4.2,1.6,6.3,2.3c1,0.3,2.1,0.7,3.1,1
					c1,0.3,2.2,0.7,3,0.9l0,0c0.3,0.1,0.6,0.2,0.8,0.3c6,2.5,12,5.6,17.5,9.5l2,1.5c0.7,0.5,1.3,1.1,2,1.6c1.3,1.1,2.6,2.3,3.8,3.5
					c2.4,2.5,4.7,5.1,6.7,8.1c3.9,5.9,6.6,12.7,7.6,19.7c0.5,3.5,0.6,7.1,0.4,10.6c-0.1,1.8-0.3,3.5-0.7,5.3
					c-0.2,0.9-0.3,1.8-0.6,2.6c-0.1,0.4-0.2,0.9-0.4,1.3l-0.2,0.7l-0.1,0.4l-0.2,0.5c-0.2,0.6-0.5,1.2-0.9,1.7l-0.1,0.1
					c-2.5,3.2-5.4,6.1-8.7,8.7c-3.3,2.6-6.9,4.7-10.8,6.3c-7.8,3.2-16.2,4-24,3.3c-7.9-0.7-15.4-2.6-22.5-5.1
					c-7.1-2.5-13.9-5.7-20.5-9.2c-6.5-3.5-12.8-7.3-18.9-11.4c-3.1-2-6.1-4.1-9-6.3c-2.9-2.2-6.2-3.9-8.7-6.6
					c-5.2-5.2-10.2-10.5-15-16.1C329.7,698.3,325.1,692.6,320.9,686.7z"/>
			</g>
			<g>
				<path class="st3" d="M336.7,638.2c0,0,60.2-9.5,97.7,6.5c10,4.3,21,6.2,31.8,4.8c14.6-1.9,31.1-9.2,34.1-31.8
					c5.6-42.1-40.9-52.6-40.9-52.6s-16.9-0.9-64.8,1.2c0,0-31.6-1.2-57.7-24.5"/>
				<path d="M336.7,638.2c10.3-3.3,20.9-5.6,31.7-7.3c5.4-0.9,10.8-1.5,16.3-1.9c2.7-0.2,5.5,0.3,8.2,0.5c2.7,0.2,5.5,0.4,8.2,0.7
					c11,1.2,22,3.3,32.7,7.4l3.9,1.5c1.1,0.5,2.2,0.9,3.4,1.3c2.3,0.8,4.6,1.4,6.9,1.9c4.7,1,9.4,1.4,14.1,1.1
					c9.4-0.7,18.8-3.7,24.5-9.9c2.9-3,4.9-6.9,6.1-11.2c1.2-4.3,1.7-9.1,1.4-13.7c-0.4-9.2-4.6-17.4-11.3-23.8
					c-3.4-3.2-7.3-5.9-11.6-8.1c-2.1-1.1-4.4-2.1-6.6-3c-1.1-0.4-2.3-0.9-3.4-1.2c-0.6-0.2-1.1-0.4-1.7-0.5l-0.8-0.2l-0.7-0.2
					l1.1,0.1c-1.1-0.1-2.5-0.1-3.8-0.1l-4-0.1c-2.7,0-5.3,0-8,0c-5.4,0-10.7,0.1-16.1,0.2c-10.7,0.2-21.5,0.6-32.3,1.1l-0.1,0
					c-0.1,0-0.3,0-0.4,0l-1.2-0.1c-0.4,0-0.8-0.1-1.1-0.1c-0.7-0.1-1.5-0.1-2.2-0.2c-1.4-0.2-2.8-0.4-4.2-0.6
					c-1.4-0.3-2.8-0.4-4.2-0.7c-1.4-0.3-2.8-0.6-4.1-1.1c-5.3-2-10.4-4.4-15.3-7.2l-1.8-1l-1.8-1.1c-1.2-0.8-2.3-1.5-3.5-2.3
					c-2.2-1.7-4.5-3.2-6.6-5c-1-0.9-2.1-1.7-3.1-2.7l-2.9-2.9c-1-0.9-1.9-1.9-2.8-3l-2.7-3l3.5,2.1c1.1,0.7,2.3,1.4,3.5,2l3.5,1.8
					c1.2,0.6,2.4,1.1,3.6,1.6c2.3,1.1,4.8,2,7.2,2.9c1.2,0.4,2.5,0.8,3.7,1.2l1.8,0.6l1.9,0.5c2.5,0.7,5,1.2,7.4,1.8l3.7,0.7
					c1.2,0.2,2.5,0.3,3.7,0.5c2.5,0.2,4.9,1.1,7.3,1.5c1.2,0.2,2.4,0.4,3.6,0.5c0.6,0.1,1.2,0.1,1.8,0.2c0.3,0,0.6,0.1,0.9,0.1
					l0.7,0.1l-0.5,0c10.8-0.5,21.7-0.9,32.5-1.1c5.4-0.1,10.9-0.2,16.3-0.2c2.7,0,5.5,0,8.2,0l4.1,0.1c1.4,0,2.7,0.1,4.3,0.1
					c0.4,0,0.7,0.1,1.1,0.1c0.5,0.1,0.8,0.2,1.2,0.3l1.1,0.3c0.7,0.2,1.4,0.4,2.1,0.7c1.4,0.5,2.8,0.9,4.1,1.5
					c2.7,1.1,5.3,2.3,7.9,3.6c2.6,1.3,5.1,2.9,7.5,4.5c2.4,1.7,4.8,3.5,7,5.6c2.2,2.1,4.3,4.3,6.1,6.8c1,1.2,1.8,2.5,2.6,3.8
					c0.7,1.4,1.6,2.7,2.2,4.1c1.4,2.8,2.4,5.7,3.2,8.7c0.7,3,1.2,6.1,1.4,9.1c0.3,6.1-0.3,12-1.9,18c-1.7,5.9-4.6,11.9-9.1,16.5
					l-1.7,1.7c-0.6,0.5-1.2,1.1-1.8,1.6c-1.2,1.1-2.5,1.9-3.8,2.9c-2.7,1.6-5.5,3.1-8.3,4.2c-0.7,0.3-1.4,0.5-2.2,0.8
					c-0.7,0.2-1.4,0.5-2.2,0.7c-1.5,0.4-2.9,0.8-4.4,1.1c-2.9,0.6-5.8,1-8.8,1.2c-5.9,0.4-11.9-0.1-17.6-1.3
					c-2.9-0.6-5.7-1.4-8.5-2.4c-1.4-0.5-2.7-1-4.1-1.5l-3.6-1.4c-9.2-3.5-19.3-5.5-29.5-6.6c-2.6-0.3-5.1-0.5-7.7-0.7
					c-2.6-0.2-5.2,0.1-7.7-0.3c-5.2-0.8-10.4-1.4-15.6-1.9c-5.3-0.5-10.6-0.9-15.9-1.3l-8-0.4C342.1,638.3,339.4,638.2,336.7,638.2z
					"/>
			</g>
		</g>
		<path class="st4" d="M365.3,635.6"/>
		<path class="st4" d="M365.3,635.6"/>
	</g>
</g>
<g id="SFONDO_B" class="st0">
	<path class="st5" d="M1224,535c0,0-13.1-82.8-60-73c0,0-18.7,8.2-28,21.4c-6.2,8.8-12.9,4.5-17.9-1.5c-4.2-5-6.9-11.1-8.4-17.5
		c-3-13.3-9-46.7-60.7-44.4c0,0-41.3,0.3-55,53c0,0-77.6-22.8-125.5,1.6c0,0-10.7-34.2-65.4-15.6c-54.7,18.5-77.1,6.8-77.1,6.8
		s29.3-114.2-138.6-109.3s-134.7,77.1-134.7,77.1s10.7,22.4,47.3,22.9c0,0,20.5,5.9,2.9,21.5c-17.6,15.6-37,28.8-36.1,51.7
		c1.1,28.2,18,38.5,42.9,46.9l0.2,4.4l2.7,49.3c0,0,3.9,42,44.9,40c25.4-1.2,34.5-18,39.4-44.3s2-42,2-42s65,85.3,127.5,88.3
		C789,675.2,829,643,829,643s35.1,37.1,101.5,30.3c66.4-6.8,72.2-29.3,72.2-29.3s24.4,51.7,59.5,14.6c0,0,29.3,31.2,58.6-6.8
		c0,0,3.9-13.7,14.6-12.7c10.7,1,31.2,38.1,64.4,28.3c33.2-9.8,30.3-31.2,30.3-31.2S1266,671,1294,633c0,0,16.7,71.2,54,21
		c0,0,11-14,19-6c6.8,6.8,8.2,50.9,48,31c44-22,31.7-147.3,31.7-147.3s-1-68.8-54.7-71.7s-83,80-83,80s-4-46-43-46
		C1233,494,1224,535,1224,535z"/>
</g>
<g id="SFONDO_A" class="st0">
	<path class="st5" d="M1414.7,563.7c0,0-1-68.8-54.7-71.7c-53.7-2.9-83,80-83,80l-1.2,7.6L1275,567c0,0-13.1-82.8-60-73
		c0,0-18.7,8.2-28,21.4c-6.2,8.8-12.9,4.5-17.9-1.5c-4.2-5-6.9-11.1-8.4-17.5c-3-13.3-9-46.7-60.7-44.4c0,0-41.3,0.3-55,53
		c0,0-77.6-22.8-125.5,1.6c0,0-10.7-34.2-65.4-15.6c-54.7,18.5-77.1,6.8-77.1,6.8s29.3-114.2-138.6-109.3s-134.7,77.1-134.7,77.1
		s10.7,22.5,47.3,22.9c0,0,20.5,5.9,2.9,21.5c-17.6,15.6-37,28.8-36.1,51.7c1.1,28.2,18,38.5,42.9,46.9l0.2,4.4l2.7,49.3
		c0,0,3.9,42,44.9,40c25.4-1.2,34.5-18,39.4-44.3c4.9-26.4,2-42,2-42s65,85.3,127.5,88.3C840,707.2,880,675,880,675
		s35.1,37.1,101.5,30.3c66.4-6.8,72.2-29.3,72.2-29.3s24.4,51.7,59.5,14.6c0,0,29.3,31.2,58.6-6.8c0,0,3.9-13.7,14.6-12.7
		s31.2,38.1,64.4,28.3c9.5-2.8,16-6.5,20.5-10.5c8.6,14.8,23.2,25.9,44.6-2.9c0,0,11-14,19-6c6.8,6.8,8.2,50.9,48,31
		C1427,689,1414.7,563.7,1414.7,563.7z"/>
</g>
<g id="RESIN-A">
	<g id="A">
		<path d="M1346.8,605.8c-3.2,11.4-5.8,22.9-7.6,34.7c-1.1,7.3-4.6,10.9-10.3,10.9c-4.2,0-7.8-1.7-10.8-5.2c-3-3.4-4.5-7.3-4.5-11.7
			c0-9.5,4.3-25.7,12.8-48.6c9-23.8,18.9-44.4,29.9-61.8c13-20.6,24.5-31.6,34.5-33c8.7-1.3,14.3-0.6,16.8,2.1
			c13.7,14.7,20.6,36.2,20.6,64.6c0,12.2-1.4,26.7-4.2,43.5l-7.2,43.1c-1,7.1-4.3,10.7-9.9,10.7c-4.8,0-8.7-2.1-11.8-6.2
			c-3.1-4.1-4.3-8.6-3.8-13.4l3.8-29.2c-4.5-0.4-12.5-1.1-24.2-2.1c-5.9-0.4-11.4-0.5-16.4-0.2c-2.4,0.1-4.9,0.4-7.6,0.6
			L1346.8,605.8z M1402.7,550.4c0-22-3.4-33-10.3-33c-5.5,0-11.8,6.9-18.9,20.8c-3.6,7.4-10,20.5-18.9,39.3
			c10.9-0.1,26.1,0.1,45.6,0.8C1401.9,570.8,1402.7,561.5,1402.7,550.4z"/>
	</g>
	<path id="_x2D__1_" d="M1220,583.1c22.4-5.6,39.1,3.5,39.1,3.5c-19-5.6-26.4-23.9-26.4-23.9c24.2,5.6,26.4,18.3,26.4,18.3
		c-13.8-23.2,8.6-64,8.6-64c19.6,48.5-1.2,65.4-1.2,65.4c12.1-18.3,31.6-23.2,31.6-23.2c-9.2,22.5-31.6,32.3-31.6,32.3
		c27.6-23.9,45.4-4.2,45.4-4.2c-18.4,17.6-44.8,7-44.8,7c13.2-0.7,22.4,11.9,22.4,11.9c-16.1-0.7-23-9.8-23-9.8
		c-3.4,21.8-11.6,20.9-10.3,20.4c4.6-2.1,7.5-20.4,7.5-20.4s-11.5,12.7-23,12.7c0,0,7.5-12.7,22.4-14.1
		C1263.1,595,1237.8,605.6,1220,583.1z"/>
	<g id="N">
		<path d="M1209.9,605c0,11.8-1.2,22.7-3.6,32.8c-1.4,5.8-5.3,8.6-11.6,8.6c-2,0-3.9-0.6-5.9-1.7c-15.3-8.5-29-21.3-41-38.3
			c-7.6-11.2-19-28-34.3-50.3c-0.7,12.8-1.7,27-2.9,42.7c-1.1,14.6-3.2,27.7-6.1,39.3c-1.5,6.5-5.6,9.7-12.2,9.7
			c-3.9,0-7.3-1.2-10.2-3.7c-2.9-2.5-4.3-5.6-4.3-9.6c0-1.4,0.1-2.7,0.4-3.8c3.5-13.9,6.2-32.1,8-54.7c2.1-27.3,4-45.6,5.7-54.9
			c1.1-6.2,5.3-9.3,12.4-9.3c3.9,0,7,1.2,9.3,3.6c8.8,9.1,18.6,21.8,29.3,38l26.5,40c5.3,7.2,11,13.8,17.2,20
			c0.4-4.6,0.6-9.2,0.6-13.7c0-15.4-2.2-32.2-6.5-50.3c-1.7-6.3-4.1-15.7-7.2-28.2c-2.5-10.7-3.8-20.3-3.8-29c0-3.4,0.2-6.7,0.6-9.9
			c1.7-1.3,2.7-1.7,3.2-1.3c12.3,14.2,22.5,39.3,30.5,75.3C1208,574.3,1209.9,590.4,1209.9,605z"/>
	</g>
	<g id="_x2E_">
		<path d="M1087.8,455.1c-4.2-3.2-9.6-4.8-16.2-4.8c-12.3,0-28.3,10-48,29.9c2.5-7.6,7.1-14.3,13.7-20.2c7.3-6.4,14.7-9.5,22.3-9.3
			c1.5-0.4,2.5-0.9,2.7-1.5l-0.4-2.3c-4.3-2.7-9-4-13.9-4c-10,0-19.1,4.7-27.3,14.1c-8.3,9.4-12.4,19.1-12.4,29.2
			c0,3.8,0.7,7.2,2.1,10.1c-3.5,6-5.3,11.6-5.3,16.8c0,7.4,2.7,11.1,8.2,11.1s9-2.2,10.7-6.7c1-2.4,2.3-5.3,4-8.8
			c2.4,0.4,4.8,0.6,7.4,0.6c8.3,0,19.1-3.9,32.4-11.8c16.1-9.5,24.8-18.7,26.1-27.6C1094.7,463.7,1092.7,458.7,1087.8,455.1z
			 M1070.6,477.6c-9.5,7.4-20.1,12.9-31.8,16.4c11.5-13,22.4-21.1,32.6-24.2c1.8-0.6,3.2-1.1,4-1.5c1.1-0.3,1.8,0,1.9,0.8
			C1077.5,471.3,1075.2,474.1,1070.6,477.6z"/>
	</g>
	<g id="I">
		<path d="M1060.4,529.4c0,11.4-0.4,28.4-1.1,51.2c-0.7,22.8-1.1,39.9-1.1,51.2c0,4.2-1.4,7.6-4.1,10.3c-2.7,2.7-6.2,4-10.4,4
			c-4.2,0-7.6-1.3-10.3-4c-2.7-2.7-4-6.1-4-10.3c0-11.4,0.3-28.4,1.1-51.2c0.7-22.8,1.1-39.9,1.1-51.2c9.1-5.6,16.2-8.4,21.2-8.4
			S1060.4,523.8,1060.4,529.4z"/>
	</g>
	<g id="S">
		<path d="M999.5,594.5c0,2.8-0.3,5.8-0.8,9c-2.8,15.6-13.8,27.1-33,34.7c-14.4,5.8-31.1,8.6-50.1,8.6c-31.4,0-54.7-6.3-69.8-18.9
			c-5.5-4.5-8.2-10.6-8.2-18.3c0-11.1,5-18.4,15.1-22.1c13-4.6,29.5-6.9,49.4-6.9c18.6,0,34.1,1.9,46.5,5.7c2,0.6,2.9,2,2.9,4.2
			c0,2-1.1,4.4-3.4,7.4c-4.1,5.3-8.7,8-13.9,8c-1.4,0-2.7-0.3-4-0.8c-10.7-4.6-17.1-7.3-19.4-8c-6.2-1.8-13.2-2.4-21-1.7
			c-2.7,0.3-9.4,2.3-20.2,6.1c-4.1,1.4-6.1,4.3-6.1,8.6c0,4.9,5.1,7.9,15.4,9c2.1,0.3,9.2,0.4,21.2,0.4c17,0,34.3-2.7,51.9-8
			c8-2.4,14.8-6,20.4-10.9c4.2-3.6,6.3-7.4,6.3-11.4c0-4.2-2.7-7.9-8-10.9c-7.7-4.5-19.7-6.9-36-7.2c2.5,0.1-9.5,0.5-36.2,1.1
			c-13.5,0.3-23.6-0.1-30.5-1.3c-12.1-2-20.9-6.2-26.5-12.8c-4.9-5.7-7.4-12.4-7.4-20c0-7.4,2.5-14.2,7.4-20.4
			c4.6-5.6,10.6-9.8,17.9-12.6c18.8-7.2,39-10.7,60.8-10.7c15.6,0,33.3,1.8,53.2,5.5l14.5,5.7c2.8,1.7,4.2,4.3,4.2,7.8
			c0,3.1-1.1,5.7-3.2,7.8c-2.1,2.1-4.7,3.2-7.8,3.2c-3.4,0-10.2-1.1-20.4-3.2c-10.2-2.1-17.4-3.4-21.5-4c-15.4-2.1-28.7-2.7-40-1.7
			c-8.1,0.7-14.2,1.7-18.1,2.9c-5.5,1.7-10.9,5-16.4,9.9c-4.3,3.8-6.5,7.4-6.5,10.7c0,3.2,2.1,6,6.3,8.4c3.6,2,7.1,3,10.3,3.2
			c9,0.1,22.4,0.4,40.2,0.8c15.7,0.4,29.1,1.8,40.2,4C984.8,561.4,999.5,574.4,999.5,594.5z"/>
	</g>
	<g id="E">
		<path d="M849.3,496c0,8.8-7.2,12.6-21.5,11.4c-2.8-0.3-7.9-0.7-15.4-1.3c0.4,0-10,0.2-31.1,0.6c-2.1,0-6.2,0.1-12.4,0.2
			c-3.1,8.1-7.9,21.2-14.5,39.3c10.1-1.3,20.3-2.2,30.5-2.7c10.4-0.6,20,0.2,28.8,2.3c2.9,0.7,4.4,2.8,4.4,6.3c0,2.4-1,4-3,4.8
			c-8.2,3.6-17.9,5.5-29.1,5.5c-4.5,0-12.2-0.4-23-1.3l-13.5-1.1c-4.6,15.7-7.2,29.4-7.8,41.2c-0.1,4.1,0,6.9,0.6,8.5
			c0.5,1.6,0.8,2.6,0.8,3.1c0.4,0.8,1.3,1.7,2.4,2.5v0.6c2.7,0.3,4.6,0.4,5.9,0.2c8.1-1,19.4-5.5,33.9-13.7l23.3-13
			c2.7-1.3,5.3-1.9,8-1.9c4.2,0,7.8,1.6,10.8,4.7c3,3.2,4.5,6.8,4.5,11c0,5.5-2.5,9.9-7.4,13.2c-28.5,19.9-52.7,29.9-72.6,29.9
			c-10.5,0-19.1-3.4-25.7-10.2c-6.6-6.8-9.8-15.5-9.7-26c0.1-13.3,4.1-30.5,12-51.5c-3.1-0.1-5.3-0.1-6.4,0.1
			c-1.2,0.2-2.9,0.5-5.2,0.9l-0.4,0.2l1-5.9c0.4-2.1,1.4-3.2,3-3.4c-0.1,0-0.1,0,0.2,0h-0.2c0.7,0,2.3,0.1,4.8,0.2
			c2.4,0.1,4.6-0.1,6.5-0.8l1.9-4.4c2.8-6.6,5.7-13.3,8.6-20.1c2.9-6.8,6.3-13.1,10.1-19c-10.9-1.3-19.3-3.6-25-6.9
			c-0.6-1.3-0.8-2.2-0.8-2.7c0-0.6,0.2-0.9,0.6-1.1c1.3-0.3,10.4-1.3,27.3-3.2c5.7-0.6,16.6-2.2,32.6-5c5.5-1.1,15.4-2.7,29.7-4.8
			c2.8-0.3,5.5-0.4,8-0.4c5.7,0,10.8,0.8,15.1,2.5C846.2,487.5,849.3,491.1,849.3,496z M720.8,550.9h0.2
			C720.7,550.9,720.6,550.9,720.8,550.9z"/>
	</g>
	<g id="R">
		<path d="M739.4,637.8c0,3.6-2.1,6.4-6.3,8.5c-3.4,1.7-7.1,2.5-11.1,2.5c-4,0-8.1-0.8-12.3-2.5c-9.3-3.8-24.3-15.1-45.2-34.1
			c-19.8-18.1-33.9-32.9-42.4-44.5c-4.4-6.1-9.3-11.9-14.5-17.4l-10.7-3.8l-1.9,0.6c-6.1,2.1-15.2,4-27.2,5.7v70.4
			c0,5.3-1.5,9.7-4.4,13.4c-2.9,3.7-7,5.5-12.2,5.5c-5,0-9-1.8-12-5.5c-3-3.7-4.5-8.1-4.5-13.4v-68.8c-30.5-1.1-45.7-8.9-45.7-23.7
			c0-1.7,0.2-3.5,0.6-5.4c3-13.5,8.9-22,17.8-25.6c3.2-1.3,12.3-2.3,27.3-3.2v-29c-0.2-11.8-1.1-20.2-2.5-25.2
			c-0.5-1.7-0.7-3.6-0.7-5.7c0-4.6,1.5-8.5,4.4-11.5c2.9-3,6.7-4.6,11.4-4.6c7.8,0,12.8,4.2,15.1,12.6c4,14.3,6.2,35.7,6.6,64
			c3.4,2.5,8.6,4.6,15.8,6.3c9.7,2.3,15.2,3.8,16.7,4.4c21-6.1,37.1-14.1,48.3-24c6.3-5.5,9.5-10.3,9.5-14.5
			c0-10.3-3.5-20.4-10.4-30.3c-6.9-9.9-15.3-17.1-24.9-21.8c-16-7.6-35.7-11.4-59-11.4c-17,0-32.2,3.7-45.4,11
			c-4,2.1-13,7.4-27.1,15.8c-2.9,1.7-5.7,2.5-8.2,2.5c-4.6,0-8.4-1.9-11.4-5.8c-2.9-3.9-4.4-8.1-4.4-12.8c0-7.1,3.3-12.5,9.8-16.1
			c23.3-13,45.6-19.6,66.9-19.6c-3.4,0-1.4-0.2,6-0.5c7.4-0.3,12.3-0.5,14.8-0.5c52.6,0,89.4,13.8,110.4,41.3
			c11.1,14.5,16.7,30.5,16.7,48c0,28-19.8,49.8-59.3,65.6c2.1,1.3,5.8,5.9,11.2,13.9c5.4,8,9,12.8,10.9,14.5
			c12,10.9,24,21.9,36,32.8c14.1,12.4,26.9,22.3,38.5,29.7C736.4,629.9,739.4,633.8,739.4,637.8z M531.5,535.3
			c0.2-2.5,0.3-4.8,0.3-6.9c0-5.7-0.8-9.5-2.5-11.4c-9.7,0-14.2,2.6-13.6,7.9c0.4,4.2,3.3,7.2,8.5,8.8
			C527.9,534.9,530.3,535.5,531.5,535.3z"/>
	</g>
</g>
<g id="RESINA" class="st0">
	<g id="A_copia" class="st1">
		<path d="M1394.2,586.8c0,12.2-1.4,26.7-4.2,43.5l-7.2,43.1c-1,7.1-4.3,10.7-9.9,10.7c-4.8,0-8.7-2.1-11.8-6.2
			c-3.1-4.1-4.3-8.6-3.8-13.4l3.8-29.2c-4.5-0.4-12.5-1.1-24.2-2.1c-5.9-0.4-11.4-0.5-16.4-0.2c-2.4,0.1-4.9,0.4-7.6,0.6v0.8
			c0.3-0.1,1,0,2.1,0.4l-1.9,1.7l-0.2-2.1c0,0.1-0.1,0.2-0.2,0.2c-3.2,11.4-5.8,22.9-7.6,34.7c-1.1,7.3-4.6,10.9-10.3,10.9
			c-4.2,0-7.8-1.7-10.8-5.2c-3-3.4-4.5-7.3-4.5-11.7c0-9.5,4.3-25.7,12.8-48.6c9-23.8,18.9-44.4,29.9-61.8
			c13-20.6,24.5-31.6,34.5-33c8.7-1.3,14.3-0.6,16.8,2.1C1387.3,537,1394.2,558.5,1394.2,586.8z M1368.7,579.4c0-22-3.4-33-10.3-33
			c-5.5,0-11.8,6.9-18.9,20.8c-3.6,7.4-10,20.5-18.9,39.3c10.9-0.1,26.1,0.1,45.6,0.8C1367.9,599.8,1368.7,590.5,1368.7,579.4z"/>
	</g>
	<g id="N_copia" class="st1">
		<path d="M1263.9,634c0,11.8-1.2,22.7-3.6,32.8c-1.4,5.8-5.3,8.6-11.6,8.6c-2,0-3.9-0.6-5.9-1.7c-15.3-8.5-29-21.3-41-38.3
			c-7.6-11.2-19-28-34.3-50.3c-0.7,12.8-1.7,27-2.9,42.7c-1.1,14.6-3.2,27.7-6.1,39.3c-1.5,6.5-5.6,9.7-12.2,9.7
			c-3.9,0-7.3-1.2-10.2-3.7c-2.9-2.5-4.3-5.6-4.3-9.6c0-1.4,0.1-2.7,0.4-3.8c3.5-13.9,6.2-32.1,8-54.7c2.1-27.3,4-45.6,5.7-54.9
			c1.1-6.2,5.3-9.3,12.4-9.3c3.9,0,7,1.2,9.3,3.6c8.8,9.1,18.6,21.8,29.3,38l26.5,40c5.3,7.2,11,13.8,17.2,20
			c0.4-4.6,0.6-9.2,0.6-13.7c0-15.4-2.2-32.2-6.5-50.3c-1.7-6.3-4.1-15.7-7.2-28.2c-2.5-10.7-3.8-20.3-3.8-29c0-3.4,0.2-6.7,0.6-9.9
			c1.7-1.3,2.7-1.7,3.2-1.3c12.3,14.2,22.5,39.3,30.5,75.3C1262,603.3,1263.9,619.4,1263.9,634z"/>
	</g>
	<g id="_x2E__copia" class="st1">
		<path d="M1141.8,484.1c-4.2-3.2-9.6-4.8-16.2-4.8c-12.3,0-28.3,10-48,29.9c2.5-7.6,7.1-14.3,13.7-20.2c7.3-6.4,14.7-9.5,22.3-9.3
			c1.5-0.4,2.5-0.9,2.7-1.5l-0.4-2.3c-4.3-2.7-9-4-13.9-4c-10,0-19.1,4.7-27.3,14.1c-8.3,9.4-12.4,19.1-12.4,29.2
			c0,3.8,0.7,7.2,2.1,10.1c-3.5,6-5.3,11.6-5.3,16.8c0,7.4,2.7,11.1,8.2,11.1c5.5,0,9-2.2,10.7-6.7c1-2.4,2.3-5.3,4-8.8
			c2.4,0.4,4.8,0.6,7.4,0.6c8.3,0,19.1-3.9,32.4-11.8c16.1-9.5,24.8-18.7,26.1-27.6C1148.7,492.7,1146.7,487.7,1141.8,484.1z
			 M1124.6,506.6c-9.5,7.4-20.1,12.9-31.8,16.4c11.5-13,22.4-21.1,32.6-24.2c1.8-0.6,3.2-1.1,4-1.5c1.1-0.3,1.8,0,1.9,0.8
			C1131.5,500.3,1129.2,503.1,1124.6,506.6z"/>
	</g>
	<g id="I_copia" class="st1">
		<path d="M1114.4,558.4c0,11.4-0.4,28.4-1.1,51.2c-0.7,22.8-1.1,39.9-1.1,51.2c0,4.2-1.4,7.6-4.1,10.3c-2.7,2.7-6.2,4-10.4,4
			c-4.2,0-7.6-1.3-10.3-4c-2.7-2.7-4-6.1-4-10.3c0-11.4,0.3-28.4,1.1-51.2c0.7-22.8,1.1-39.9,1.1-51.2c9.1-5.6,16.2-8.4,21.2-8.4
			S1114.4,552.8,1114.4,558.4z"/>
	</g>
	<g id="S_copia" class="st1">
		<path d="M1053.5,623.5c0,2.8-0.3,5.8-0.8,9c-2.8,15.6-13.8,27.1-33,34.7c-14.4,5.8-31.1,8.6-50.1,8.6c-31.4,0-54.7-6.3-69.8-18.9
			c-5.5-4.5-8.2-10.6-8.2-18.3c0-11.1,5-18.4,15.1-22.1c13-4.6,29.5-6.9,49.4-6.9c18.6,0,34.1,1.9,46.5,5.7c2,0.6,2.9,2,2.9,4.2
			c0,2-1.1,4.4-3.4,7.4c-4.1,5.3-8.7,8-13.9,8c-1.4,0-2.7-0.3-4-0.8c-10.7-4.6-17.1-7.3-19.4-8c-6.2-1.8-13.2-2.4-21-1.7
			c-2.7,0.3-9.4,2.3-20.2,6.1c-4.1,1.4-6.1,4.3-6.1,8.6c0,4.9,5.1,7.9,15.4,9c2.1,0.3,9.2,0.4,21.2,0.4c17,0,34.3-2.7,51.9-8
			c8-2.4,14.8-6,20.4-10.9c4.2-3.6,6.3-7.4,6.3-11.4c0-4.2-2.7-7.9-8-10.9c-7.7-4.5-19.7-6.9-36-7.2c2.5,0.1-9.5,0.5-36.2,1.1
			c-13.5,0.3-23.6-0.1-30.5-1.3c-12.1-2-20.9-6.2-26.5-12.8c-4.9-5.7-7.4-12.4-7.4-20c0-7.4,2.5-14.2,7.4-20.4
			c4.6-5.6,10.6-9.8,17.9-12.6c18.8-7.2,39-10.7,60.8-10.7c15.6,0,33.3,1.8,53.2,5.5l14.5,5.7c2.8,1.7,4.2,4.3,4.2,7.8
			c0,3.1-1.1,5.7-3.2,7.8c-2.1,2.1-4.7,3.2-7.8,3.2c-3.4,0-10.2-1.1-20.4-3.2c-10.2-2.1-17.4-3.4-21.5-4c-15.4-2.1-28.7-2.7-40-1.7
			c-8.1,0.7-14.2,1.7-18.1,2.9c-5.5,1.7-10.9,5-16.4,9.9c-4.3,3.8-6.5,7.4-6.5,10.7c0,3.2,2.1,6,6.3,8.4c3.6,2,7.1,3,10.3,3.2
			c9,0.1,22.4,0.4,40.2,0.8c15.7,0.4,29.1,1.8,40.2,4C1038.8,590.4,1053.5,603.4,1053.5,623.5z"/>
	</g>
	<g id="E_copia" class="st1">
		<path d="M903.3,525c0,8.8-7.2,12.6-21.5,11.4c-2.8-0.3-7.9-0.7-15.4-1.3c0.4,0-10,0.2-31.1,0.6c-2.1,0-6.2,0.1-12.4,0.2
			c-3.1,8.1-7.9,21.2-14.5,39.3c10.1-1.3,20.3-2.2,30.5-2.7c10.4-0.6,20,0.2,28.8,2.3c2.9,0.7,4.4,2.8,4.4,6.3c0,2.4-1,4-3,4.8
			c-8.2,3.6-17.9,5.5-29.1,5.5c-4.5,0-12.2-0.4-23-1.3l-13.5-1.1c-4.6,15.7-7.2,29.4-7.8,41.2c-0.1,4.1,0,6.9,0.6,8.5
			c0.5,1.6,0.8,2.6,0.8,3.1c0.4,0.8,1.3,1.7,2.4,2.5v0.6c2.7,0.3,4.6,0.4,5.9,0.2c8.1-1,19.4-5.5,33.9-13.7l23.3-13
			c2.7-1.3,5.3-1.9,8-1.9c4.2,0,7.8,1.6,10.8,4.7c3,3.2,4.5,6.8,4.5,11c0,5.5-2.5,9.9-7.4,13.2c-28.5,19.9-52.7,29.9-72.6,29.9
			c-10.5,0-19.1-3.4-25.7-10.2c-6.6-6.8-9.8-15.5-9.7-26c0.1-13.3,4.1-30.5,12-51.5c-3.1-0.1-5.3-0.1-6.4,0.1
			c-1.2,0.2-2.9,0.5-5.2,0.9l-0.4,0.2l1-5.9c0.4-2.1,1.4-3.2,3-3.4c-0.1,0-0.1,0,0.2,0h-0.2c0.7,0,2.3,0.1,4.8,0.2
			c2.4,0.1,4.6-0.1,6.5-0.8l1.9-4.4c2.8-6.6,5.7-13.3,8.6-20.1c2.9-6.8,6.3-13.1,10.1-19c-10.9-1.3-19.3-3.6-25-6.9
			c-0.6-1.3-0.8-2.2-0.8-2.7c0-0.6,0.2-0.9,0.6-1.1c1.3-0.3,10.4-1.3,27.3-3.2c5.7-0.6,16.6-2.2,32.6-5c5.5-1.1,15.4-2.7,29.7-4.8
			c2.8-0.3,5.5-0.4,8-0.4c5.7,0,10.8,0.8,15.1,2.5C900.2,516.5,903.3,520.1,903.3,525z M774.8,579.9h0.2
			C774.7,579.9,774.6,579.9,774.8,579.9z"/>
	</g>
	<g id="R_copia" class="st1">
		<path d="M793.4,666.8c0,3.6-2.1,6.4-6.3,8.5c-3.4,1.7-7.1,2.5-11.1,2.5c-4,0-8.1-0.8-12.3-2.5c-9.3-3.8-24.3-15.1-45.2-34.1
			c-19.8-18.1-33.9-32.9-42.4-44.5c-4.4-6.1-9.3-11.9-14.5-17.4l-10.7-3.8l-1.9,0.6c-6.1,2.1-15.2,4-27.2,5.7v70.4
			c0,5.3-1.5,9.7-4.4,13.4c-2.9,3.7-7,5.5-12.2,5.5c-5,0-9-1.8-12-5.5c-3-3.7-4.5-8.1-4.5-13.4v-68.8c-30.5-1.1-45.7-8.9-45.7-23.7
			c0-1.7,0.2-3.5,0.6-5.4c3-13.5,8.9-22,17.8-25.6c3.2-1.3,12.3-2.3,27.3-3.2v-29c-0.2-11.8-1.1-20.2-2.5-25.2
			c-0.5-1.7-0.7-3.6-0.7-5.7c0-4.6,1.5-8.5,4.4-11.5c2.9-3,6.7-4.6,11.4-4.6c7.8,0,12.8,4.2,15.1,12.6c4,14.3,6.2,35.7,6.6,64
			c3.4,2.5,8.6,4.6,15.8,6.3c9.7,2.3,15.2,3.8,16.7,4.4c21-6.1,37.1-14.1,48.3-24c6.3-5.5,9.5-10.3,9.5-14.5
			c0-10.3-3.5-20.4-10.4-30.3c-6.9-9.9-15.3-17.1-24.9-21.8c-16-7.6-35.7-11.4-59-11.4c-17,0-32.2,3.7-45.4,11
			c-4,2.1-13,7.4-27.1,15.8c-2.9,1.7-5.7,2.5-8.2,2.5c-4.6,0-8.4-1.9-11.4-5.8c-2.9-3.9-4.4-8.1-4.4-12.8c0-7.1,3.3-12.5,9.8-16.1
			c23.3-13,45.6-19.6,66.9-19.6c-3.4,0-1.4-0.2,6-0.5c7.4-0.3,12.3-0.5,14.8-0.5c52.6,0,89.4,13.8,110.4,41.3
			c11.1,14.5,16.7,30.5,16.7,48c0,28-19.8,49.8-59.3,65.6c2.1,1.3,5.8,5.9,11.2,13.9c5.4,8,9,12.8,10.9,14.5
			c12,10.9,24,21.9,36,32.8c14.1,12.4,26.9,22.3,38.5,29.7C790.4,658.9,793.4,662.8,793.4,666.8z M585.5,564.3
			c0.2-2.5,0.3-4.8,0.3-6.9c0-5.7-0.8-9.5-2.5-11.4c-9.7,0-14.2,2.6-13.6,7.9c0.4,4.2,3.3,7.2,8.5,8.8
			C581.9,563.9,584.3,564.5,585.5,564.3z"/>
	</g>
</g>
</svg>
