<?xml version="1.0" encoding="utf-8"?>
<!-- Generator: Adobe Illustrator 24.0.0, SVG Export Plug-In . SVG Version: 6.00 Build 0)  -->
<svg version="1.1" xmlns="http://www.w3.org/2000/svg" xmlns:xlink="http://www.w3.org/1999/xlink" x="0px" y="0px"
	 viewBox="0 0 1080 1080" style="enable-background:new 0 0 1080 1080;" xml:space="preserve">
<style type="text/css">
	.st0{display:none;}
	.st1{display:inline;}
	.st2{fill:#FFFFFF;stroke:#000000;stroke-width:12;stroke-linejoin:round;stroke-miterlimit:10;}
	.st3{fill:#FFFFFF;stroke:#000000;stroke-width:12;stroke-miterlimit:10;}
	.st4{display:inline;fill:#FFFFFF;stroke:#000000;stroke-width:12;stroke-linecap:round;stroke-miterlimit:10;}
	
		.st5{display:inline;fill:#FFFFFF;stroke:#000000;stroke-width:12;stroke-linecap:round;stroke-linejoin:round;stroke-miterlimit:10;}
</style>
<g id="Livello_3" class="st0">
	<g class="st1">
		<path class="st2" d="M539.2,591.3c27.9,0,43.9-3,43.9-3s86-12,82-48l0.3,0v50c0,0-17,44-126,44s-126-44-126-44v-50l0.3,0
			c-4,36,82,48,82,48s15.9,3,43.9,3"/>
		<path class="st3" d="M665.2,539.3c-6.9-48.1-121.6-49-125.9-49v0c0,0,0,0-0.1,0c0,0-0.1,0-0.1,0v0c-4.3,0-119,0.9-125.9,49
			c-4,36,82,48,82,48s15.9,3,43.9,3v0c0,0,0,0,0.1,0s0,0,0.1,0v0c27.9,0,43.9-3,43.9-3S669.2,575.3,665.2,539.3z"/>
	</g>
	<polyline class="st4" points="434,540 446,528 458,540 	"/>
	<polyline class="st4" points="527,574 539,562 551,574 	"/>
	<polyline class="st4" points="474,562 486,550 498,562 	"/>
	<polyline class="st4" points="582,562 594,550 606,562 	"/>
	<polyline class="st4" points="472,522 484,510 496,522 	"/>
	<polyline class="st4" points="580,522 592,510 604,522 	"/>
	<polyline class="st4" points="526,512 538,500 550,512 	"/>
	<polyline class="st4" points="621,540 633,528 645,540 	"/>
	<path class="st5" d="M521,541c0,0,4.7-8,18-8s17,8,17,8"/>
</g>
<g id="Livello_2">
	<g>
		<path class="st2" d="M539.4,548.5c27.9,0,43.9-3,43.9-3s86-12,82-48l0.3,0v50c0,0-17,44-126,44s-126-44-126-44v-50l0.3,0
			c-4,36,82,48,82,48s15.9,3,43.9,3"/>
		<path class="st3" d="M665.4,496.5c-6.9-48.1-121.6-49-125.9-49v0c0,0,0,0-0.1,0c0,0-0.1,0-0.1,0v0c-4.3,0-119,0.9-125.9,49
			c-4,36,82,48,82,48s15.9,3,43.9,3v0c0,0,0,0,0.1,0s0,0,0.1,0v0c27.9,0,43.9-3,43.9-3S669.4,532.5,665.4,496.5z"/>
	</g>
</g>
</svg>
