<svg xmlns="http://www.w3.org/2000/svg" viewBox="0 0 337.96 364.2"><defs><style>.cls-1,.cls-2{fill:#fff;}.cls-1{stroke:#000;stroke-linecap:round;stroke-linejoin:round;stroke-width:13px;}</style></defs><title>Mano DX</title><g id="Livello_2" data-name="Livello 2"><g id="Mano_DX" data-name="Mano DX"><g id="Livello_3" data-name="Livello 3"><path class="cls-1" d="M84.16,258.27S116,224.54,95,165.55c0,0-17.5-16.7-49.67-.77,0,0-18.09,3.15-19.63,53.45L7.15,288.85s-5.22,9.42,13.91,17S97,327.8,122,347.4s58.46,5.21,58.46,5.21,28.59-15.58,34.52-32c0,0,49.33-2.82,83.58-46.26S325,146.92,325,146.92s-6.53-12.74-.68-21.39c0,0,32.5-47.17-41.3-104.39,0,0-69.46-44-91.64,20.56,0,0-27.86,1.44-57.18,38.27,0,0-46.38,65-37.55,90C111.36,211.69,87.78,264.18,84.16,258.27Z"/></g><g id="Livello_5" data-name="Livello 5"><path class="cls-2" d="M203.05,221.28s-4,25.18-43.74,31.81-57.54-7.25-107,25.4-30.23,74.85-3.12,80c30.12,5.72,58.05-16.37,61.33-19.07a2.67,2.67,0,0,0,.47-.48c1.42-1.87,15.31-16,109.55-17.1h.16c2.06.08,48.12,1.45,84.71-51.12,35.47-51,20.62-128.06,19-136a4.63,4.63,0,0,1-.05-.83c-.07-2.81-13.13-39.4-26-52.22"/><path d="M203.69,221.38c-1.73,8.05-6.83,14.78-13,19.93a61.21,61.21,0,0,1-21.33,10.88,122.8,122.8,0,0,1-23.53,4.21c-7.93.7-15.88.78-23.72,1a123.73,123.73,0,0,0-23.08,2.49,105.85,105.85,0,0,0-21.77,7.52L72.11,270l-1.3.64c-.42.23-.84.48-1.26.72L67,272.83c-1.68,1-3.38,1.9-5,2.93l-4.9,3.17a95.38,95.38,0,0,0-17.83,14.3,63.86,63.86,0,0,0-7,8.75,48.12,48.12,0,0,0-4.91,9.81,34.31,34.31,0,0,0-.77,21,31.42,31.42,0,0,0,12,16.82A28.2,28.2,0,0,0,48,354c.85.16,1.62.4,2.54.52s1.79.31,2.7.37a51.93,51.93,0,0,0,5.45.3,63.85,63.85,0,0,0,21.65-4,93.77,93.77,0,0,0,20-10.21q2.35-1.56,4.59-3.26c.74-.56,1.47-1.13,2.17-1.7l.25-.21s.14-.11.07-.07a.39.39,0,0,0-.1.08.77.77,0,0,0-.17.19c-.06.09.07-.07.13-.14l.23-.28.47-.52.4-.37.82-.74,1.54-1.14c.51-.34,1-.62,1.5-.93a33.48,33.48,0,0,1,3-1.59c1-.54,2-.87,3-1.31l1.48-.61,1.48-.52A154.5,154.5,0,0,1,144.91,322a436.84,436.84,0,0,1,47.62-5.06l11.9-.64,11.9-.42,3-.1.75,0h1l1.19,0c1.71-.06,3.5-.22,5.29-.45a78.07,78.07,0,0,0,10.7-2.18,94.36,94.36,0,0,0,20.43-8.26,99.68,99.68,0,0,0,9.45-5.8c1.54-1,3-2.17,4.5-3.26s2.93-2.29,4.34-3.5a129.38,129.38,0,0,0,15.75-15.91c1.22-1.43,2.36-2.93,3.55-4.39s2.25-3,3.37-4.53,2.07-3.07,3.11-4.6,1.9-3.19,2.85-4.77c7.41-12.9,12.05-27.5,14.84-42.48a224.13,224.13,0,0,0,3.49-46c-.13-7.75-.69-15.5-1.48-23.21-.22-1.93-.43-3.86-.69-5.78l-.4-2.87-.22-1.42-.12-.71,0-.17,0-.31-.05-.64v-.32a1.12,1.12,0,0,0,0-.22.19.19,0,0,1,0-.07,1.34,1.34,0,0,0-.06-.33l-.3-1.29c-.26-.91-.49-1.81-.78-2.74-.54-1.84-1.15-3.68-1.75-5.53a226.75,226.75,0,0,0-8.45-21.8c-3.23-7.08-6.73-14.14-11.74-20.06l0,0a.65.65,0,0,1,.93-.9,62.45,62.45,0,0,1,7.87,9.1c2.26,3.29,4.43,6.66,6.38,10.14a214.52,214.52,0,0,1,10.59,21.45q1.17,2.76,2.24,5.59c.37.93.7,1.92,1.05,2.88l.49,1.56a8.09,8.09,0,0,1,.26,1.11l.1.65c0,.15,0,.14,0,.15v0a.28.28,0,0,1,0,.09s0,0,0,.07l0,.19.18.74.34,1.48.63,2.94c.42,2,.79,3.94,1.15,5.91.72,3.94,1.29,7.9,1.79,11.88s.91,8,1.22,12,.53,8,.68,12,.12,8.05,0,12.08a207.57,207.57,0,0,1-2,24.2,160.08,160.08,0,0,1-5.34,23.91A129.49,129.49,0,0,1,317,264.29c-1.05,1.81-2.05,3.64-3.13,5.43s-2.25,3.55-3.42,5.26-2.36,3.36-3.59,5-2.49,3.28-3.8,4.87a137.12,137.12,0,0,1-17.37,17.72c-1.58,1.36-3.23,2.64-4.88,3.91s-3.35,2.49-5.1,3.62a111.32,111.32,0,0,1-10.76,6.45,104.75,104.75,0,0,1-23.49,8.95,89.85,89.85,0,0,1-12.51,2.17c-2.13.21-4.27.34-6.5.36l-1.76,0h-1.21l-2.94,0-11.73.08c-3.91.07-7.82.19-11.72.3a426,426,0,0,0-46.47,3.82,144.1,144.1,0,0,0-22.19,5l-1.32.43-1.25.49c-.82.34-1.72.62-2.46,1a22.67,22.67,0,0,0-2.26,1.13c-.33.2-.7.39-1,.59l-.85.6-.28.25-.15.12s0,0,0,0h0s0-.05-.12.13-.44.49-.68.72l-.36.34c-.15.14-.13.11-.21.18l-.32.25c-.84.66-1.67,1.29-2.51,1.9-1.68,1.22-3.39,2.37-5.13,3.48a103,103,0,0,1-22.23,10.75,72.41,72.41,0,0,1-24.69,4,58.61,58.61,0,0,1-6.34-.48c-1.06-.1-2.1-.34-3.15-.5s-2.16-.49-3.23-.74A36.34,36.34,0,0,1,34,356.08a39.22,39.22,0,0,1-14.53-21.23,39.92,39.92,0,0,1-1.3-12.9,43.35,43.35,0,0,1,2.69-12.54,55.29,55.29,0,0,1,5.87-11.17,70.16,70.16,0,0,1,7.93-9.55A101.41,101.41,0,0,1,54,274l5.11-3.12c1.72-1,3.51-1.92,5.26-2.89L67,266.54c.44-.24.87-.49,1.32-.71l1.37-.64,5.45-2.55a110.72,110.72,0,0,1,23-7.27,127.88,127.88,0,0,1,23.91-2c7.93,0,15.75.09,23.54-.4a119.17,119.17,0,0,0,23-3.48,58.81,58.81,0,0,0,20.82-9.81,42.41,42.41,0,0,0,8-8.24c.53-.81,1.08-1.6,1.59-2.41s1-1.67,1.37-2.54a24.91,24.91,0,0,0,2-5.36l0-.08a.65.65,0,1,1,1.26.28Z"/><path d="M292.09,193c.2-3.27.55-6.12,1-8.84s.89-5.3,1.38-7.83c.25-1.26.62-2.47.94-3.7.18-.61.39-1.21.62-1.8s.48-1.19.69-1.8c.46-1.2,1-2.4,1.44-3.64s.76-2.5,1.07-3.78.47-2.58.72-3.88l.33-2c.08-.66.12-1.32.18-2l.44-4,.1-4.06.08-2.06c0-.68-.05-1.36-.08-2.05-.06-1.37-.14-2.75-.18-4.15a15.77,15.77,0,0,0-.17-2.08l-.25-2.09-.44-4.23v0a.67.67,0,0,1,.59-.72.65.65,0,0,1,.66.37c1.23,2.58,2.54,5.18,3.59,7.9.5,1.36,1,2.75,1.44,4.14.23.7.49,1.39.69,2.1l.53,2.14a66.48,66.48,0,0,1,2.12,17.81c-.07,1.51-.07,3-.06,4.59s-.15,3.08-.26,4.64a22.79,22.79,0,0,1-.86,4.56,22.27,22.27,0,0,1-1.73,4.32,31.27,31.27,0,0,1-5.45,7.61,21.86,21.86,0,0,1-8.1,5.39.75.75,0,0,1-1-.46,1,1,0,0,1,0-.29Z"/></g><g id="Livello_4" data-name="Livello 4"><path class="cls-2" d="M180.8,181.35s-8.38,5.55-13.25,18.56-10.83,43.68-46.59,60S39.82,268,67,217.44a378.39,378.39,0,0,1,26.07-32.89s15-35.45,21.75-60.34c0,0,14.17-69.64,80-80.74,0,0,56.09-13.51,90.31,20.52"/><path d="M180.8,181.35a37.14,37.14,0,0,0-8,9.89A50.74,50.74,0,0,0,168,202.92c-1.16,4.1-2.26,8.31-3.64,12.46a103.89,103.89,0,0,1-5,12.24,83.56,83.56,0,0,1-6.81,11.5,73.75,73.75,0,0,1-8.84,10.19,82.92,82.92,0,0,1-22.31,15.17,88,88,0,0,1-26.07,7.66,62.62,62.62,0,0,1-14,.21,38.91,38.91,0,0,1-14.3-4.09,27.49,27.49,0,0,1-6.52-4.71,25.18,25.18,0,0,1-4.9-6.74A27.18,27.18,0,0,1,53.17,249a34.51,34.51,0,0,1-.33-7.76,54.87,54.87,0,0,1,3.06-14.16,91.36,91.36,0,0,1,5.57-12.63,3.55,3.55,0,0,1,.32-.53l.05-.08c2.08-3,4.13-5.84,6.24-8.71s4.26-5.69,6.44-8.5,4.42-5.58,6.7-8.33,4.65-5.45,7-8.13L87.09,182c4.39-10.67,8.7-21.54,12.66-32.4,2-5.45,3.91-10.9,5.7-16.36.47-1.37.88-2.73,1.31-4.1l.65-2,.57-2,.58-2,.07-.25,0-.12s0-.16,0,0l.14-.61.3-1.18c.39-1.54.82-3,1.27-4.51a130,130,0,0,1,6.74-17.14,123.66,123.66,0,0,1,9-16,114.63,114.63,0,0,1,11.44-14.48,100.53,100.53,0,0,1,13.86-12.29,92.26,92.26,0,0,1,33.38-15.35c3-.68,6.05-1.26,8.88-1.66l2.19-.39,2.26-.35c1.5-.22,3-.4,4.5-.55a133.68,133.68,0,0,1,18-.64,124.63,124.63,0,0,1,17.87,1.88,94.81,94.81,0,0,1,17.29,4.76,82,82,0,0,1,15.89,8.1A70.11,70.11,0,0,1,285.08,64a77.14,77.14,0,0,0-30.36-16.3,109,109,0,0,0-34-3.72,136.29,136.29,0,0,0-17,1.72c-1.41.23-2.8.49-4.18.78l-2.06.44-2.11.5c-2.94.6-5.58,1.28-8.28,2.07s-5.31,1.75-7.9,2.77-5.1,2.22-7.56,3.49a88.4,88.4,0,0,0-13.87,9.06c-17.25,13.87-29.09,34.06-35.38,55.32-.39,1.32-.75,2.65-1.06,3.95l-.22,1-.1.46c0,.24,0,.19-.06.27l0,.14-.08.28-.62,2.26-.63,2.27-.64,2.15c-.44,1.43-.85,2.87-1.31,4.28-1.76,5.7-3.69,11.31-5.69,16.88-4,11.14-8.25,22.1-12.86,33a6.74,6.74,0,0,1-1.18,1.84c-4.57,5-9,10.3-13.26,15.69q-3.22,4-6.36,8.15c-2.07,2.74-4.15,5.55-6.11,8.28l.38-.62a87.58,87.58,0,0,0-5,10.85,42.93,42.93,0,0,0-2.68,10.91,19.44,19.44,0,0,0,1.31,9.63,14.67,14.67,0,0,0,6.33,6.67,29.69,29.69,0,0,0,10.26,3.3,53,53,0,0,0,11.7.29,80.47,80.47,0,0,0,23.56-5.67,77.35,77.35,0,0,0,21-12.43,73.4,73.4,0,0,0,15.88-18.82c4.29-7.18,7.35-15.08,10.46-23.15a48.82,48.82,0,0,1,6.21-11.59A35.75,35.75,0,0,1,180.8,181.35Z"/></g></g></g></svg>