<svg xmlns="http://www.w3.org/2000/svg" viewBox="0 0 232.32 235.04"><defs><style>.cls-1{fill:#fff;}</style></defs><title>Livello 4</title><g id="Livello_2" data-name="Livello 2"><g id="Mano_DX" data-name="Mano DX"><g id="Livello_4" data-name="Livello 4"><path class="cls-1" d="M128,143.75s-8.38,5.54-13.25,18.55S104,206,68.2,222.26s-81.13,8.13-54-42.43A377.35,377.35,0,0,1,40.3,146.94s15-35.44,21.75-60.34c0,0,14.16-69.64,80-80.74,0,0,56.09-13.51,90.31,20.52"/><path d="M128,143.75a36.83,36.83,0,0,0-8,9.89,50.48,50.48,0,0,0-4.76,11.67c-1.16,4.11-2.26,8.32-3.64,12.47a104.44,104.44,0,0,1-5,12.23,83.56,83.56,0,0,1-6.81,11.5A75,75,0,0,1,91,211.71,83.09,83.09,0,0,1,68.7,226.87a87.71,87.71,0,0,1-26.07,7.66,63.21,63.21,0,0,1-14,.22,39.1,39.1,0,0,1-14.3-4.09,27.53,27.53,0,0,1-6.52-4.72,25.29,25.29,0,0,1-4.9-6.73,27.56,27.56,0,0,1-2.46-7.79,35.11,35.11,0,0,1-.33-7.76,54.71,54.71,0,0,1,3.06-14.15,91,91,0,0,1,5.57-12.64,5.74,5.74,0,0,1,.32-.53l.05-.08c2.08-3,4.13-5.84,6.24-8.71s4.26-5.69,6.44-8.5,4.43-5.58,6.71-8.33,4.64-5.45,7-8.13l-1.17,1.83C38.72,133.75,43,122.89,47,112c2-5.45,3.92-10.9,5.7-16.36.47-1.36.88-2.73,1.31-4.1l.65-2,.57-2,.58-2,.07-.25,0-.12s0-.15,0,0l.14-.61.29-1.18c.39-1.54.82-3,1.28-4.51a130,130,0,0,1,6.73-17.14,125,125,0,0,1,9-16A113.82,113.82,0,0,1,84.86,31.3,100.52,100.52,0,0,1,98.71,19,92.15,92.15,0,0,1,132.09,3.67c3-.69,6-1.26,8.88-1.67l2.19-.39,2.26-.35c1.5-.21,3-.4,4.5-.55a133.74,133.74,0,0,1,18-.64A124.63,124.63,0,0,1,185.79,2a95.62,95.62,0,0,1,17.29,4.76A81.19,81.19,0,0,1,219,14.82a69.71,69.71,0,0,1,13.35,11.56A77.14,77.14,0,0,0,202,10.08a109.24,109.24,0,0,0-34-3.72,138.2,138.2,0,0,0-17,1.72c-1.4.24-2.8.5-4.18.78l-2.06.44-2.11.5c-2.94.61-5.58,1.28-8.28,2.07s-5.31,1.75-7.89,2.77-5.1,2.22-7.56,3.5A87.27,87.27,0,0,0,105,27.19C87.7,41.06,75.86,61.25,69.57,82.51c-.39,1.33-.75,2.66-1.06,4l-.22,1-.1.46a2,2,0,0,1-.06.27l0,.14-.08.28-.62,2.26-.63,2.27-.64,2.15c-.44,1.43-.85,2.87-1.31,4.29-1.76,5.7-3.68,11.3-5.69,16.87-4,11.15-8.25,22.1-12.86,33a6.37,6.37,0,0,1-1.18,1.84c-4.57,5-9,10.31-13.26,15.69q-3.22,4-6.35,8.15c-2.08,2.74-4.16,5.55-6.11,8.28l.37-.62a87.58,87.58,0,0,0-5.05,10.85A43,43,0,0,0,12,204.56a19.4,19.4,0,0,0,1.32,9.62,14.66,14.66,0,0,0,6.32,6.68,29.68,29.68,0,0,0,10.26,3.29,52.43,52.43,0,0,0,11.71.29,80.16,80.16,0,0,0,23.55-5.67,77.57,77.57,0,0,0,21-12.42,73.54,73.54,0,0,0,15.88-18.82c4.3-7.18,7.35-15.08,10.46-23.16a49,49,0,0,1,6.21-11.59A35.71,35.71,0,0,1,128,143.75Z"/></g></g></g></svg>