<svg xmlns="http://www.w3.org/2000/svg" viewBox="0 0 315.76 282.62"><defs><style>.cls-1{fill:#fff;}</style></defs><title>Livello 5</title><g id="Livello_2" data-name="Livello 2"><g id="Mano_DX" data-name="Mano DX"><g id="Livello_5" data-name="Livello 5"><path class="cls-1" d="M185,140.24s-4,25.19-43.73,31.82-57.55-7.25-107,25.4-30.23,74.85-3.13,80c30.13,5.72,58.06-16.37,61.34-19.08a2.93,2.93,0,0,0,.46-.47c1.43-1.88,15.31-16,109.55-17.1h.16c2.06.09,48.12,1.45,84.71-51.11,35.47-51,20.62-128.07,19-136a4.57,4.57,0,0,1-.06-.83c-.07-2.8-13.12-39.39-26.05-52.22"/><path d="M185.64,140.34c-1.73,8.06-6.83,14.79-13,19.94a61.29,61.29,0,0,1-21.33,10.88,122,122,0,0,1-23.53,4.2c-7.93.71-15.88.78-23.71,1A124.38,124.38,0,0,0,81,178.87a106.32,106.32,0,0,0-21.78,7.52L54.06,189l-1.3.65-1.26.72L49,191.8c-1.67,1-3.38,1.9-5,2.93l-4.9,3.16a95.85,95.85,0,0,0-17.84,14.3,63.94,63.94,0,0,0-7,8.76,48.12,48.12,0,0,0-4.91,9.81,34.3,34.3,0,0,0-.77,21,31.54,31.54,0,0,0,12,16.81A28.61,28.61,0,0,0,29.9,273c.86.16,1.62.4,2.54.52s1.79.31,2.7.37a49.49,49.49,0,0,0,5.45.29,63.37,63.37,0,0,0,21.65-4,93.32,93.32,0,0,0,20-10.21q2.35-1.56,4.59-3.25c.74-.56,1.47-1.13,2.17-1.7l.25-.22.07-.06-.1.07a.78.78,0,0,0-.16.2l.13-.15.22-.27c.16-.18.32-.37.47-.52l.4-.38.82-.73,1.54-1.14c.51-.34,1-.63,1.51-.94,1-.65,2-1.06,3-1.58s2-.87,3-1.31l1.48-.62,1.49-.51a153,153,0,0,1,23.76-5.89,437.13,437.13,0,0,1,47.62-5.07l11.9-.63,11.9-.42,3-.1.74,0h1c.34,0,.78,0,1.19,0,1.71-.07,3.5-.23,5.29-.46A77,77,0,0,0,220.19,232a93.49,93.49,0,0,0,20.42-8.26,98.34,98.34,0,0,0,9.45-5.79c1.55-1,3-2.17,4.5-3.27s2.93-2.28,4.34-3.49a129.38,129.38,0,0,0,15.75-15.91c1.22-1.43,2.36-2.93,3.55-4.39s2.25-3,3.38-4.54,2.06-3.07,3.1-4.6,1.9-3.18,2.86-4.77c7.4-12.89,12-27.49,14.84-42.47a224.93,224.93,0,0,0,3.48-46c-.13-7.74-.69-15.49-1.48-23.21-.21-1.92-.43-3.85-.69-5.77l-.4-2.87-.22-1.43-.12-.7,0-.18,0-.3,0-.64,0-.32a2,2,0,0,0,0-.22.11.11,0,0,1,0-.08,1.68,1.68,0,0,0-.05-.33l-.31-1.28c-.26-.91-.48-1.82-.77-2.74-.55-1.85-1.16-3.69-1.76-5.54a228.81,228.81,0,0,0-8.45-21.8C288.22,14.07,284.72,7,279.71,1.09l0,0a.65.65,0,0,1,.94-.9,62,62,0,0,1,7.86,9.1c2.26,3.29,4.43,6.66,6.39,10.13a213.36,213.36,0,0,1,10.58,21.45c.78,1.85,1.53,3.7,2.25,5.59.37.93.69,1.92,1,2.88l.49,1.56A7,7,0,0,1,309.5,52l.1.65c0,.15,0,.13,0,.15v.14a.15.15,0,0,0,0,.07l0,.18.18.74.34,1.48.64,3c.41,2,.78,3.93,1.14,5.9.72,3.95,1.29,7.91,1.79,11.88s.91,8,1.23,12,.52,8,.68,12,.11,8.05,0,12.08a207.42,207.42,0,0,1-2,24.19,158,158,0,0,1-5.34,23.92,129.49,129.49,0,0,1-9.42,22.94c-1,1.81-2.05,3.64-3.13,5.43s-2.25,3.54-3.41,5.25-2.37,3.36-3.6,5-2.48,3.28-3.79,4.88a136.55,136.55,0,0,1-17.38,17.72c-1.58,1.36-3.23,2.63-4.88,3.91s-3.35,2.48-5.1,3.62a111.32,111.32,0,0,1-10.76,6.45,105.23,105.23,0,0,1-23.49,8.95,91.35,91.35,0,0,1-12.51,2.17c-2.13.2-4.26.34-6.49.35-.58,0-1.13,0-1.77,0l-.25,0h-1l-2.93,0-11.74.07c-3.91.07-7.81.2-11.72.31a426.25,426.25,0,0,0-46.47,3.81,144.11,144.11,0,0,0-22.19,5l-1.32.42-1.25.5c-.82.34-1.72.62-2.46,1a24.83,24.83,0,0,0-2.25,1.13c-.34.2-.71.4-1,.6l-.85.59-.28.25-.15.12,0,0h0s0-.05-.12.12a9.33,9.33,0,0,1-.68.73l-.36.34a1.23,1.23,0,0,1-.21.17l-.31.26c-.85.66-1.68,1.28-2.52,1.89q-2.52,1.83-5.13,3.48a103,103,0,0,1-22.23,10.76,72.36,72.36,0,0,1-24.69,4,56.33,56.33,0,0,1-6.34-.47c-1-.1-2.1-.34-3.14-.5s-2.16-.49-3.24-.74a36.4,36.4,0,0,1-11.84-5.84A39.17,39.17,0,0,1,1.38,253.81a39.87,39.87,0,0,1-1.3-12.9,43.75,43.75,0,0,1,2.69-12.54,54.94,54.94,0,0,1,5.87-11.16,69.55,69.55,0,0,1,7.93-9.55,101.47,101.47,0,0,1,19.34-14.73L41,189.82c1.72-1,3.52-1.93,5.27-2.89l2.64-1.43c.44-.23.88-.48,1.32-.7l1.37-.64,5.46-2.55a110.63,110.63,0,0,1,23-7.27,127.93,127.93,0,0,1,23.92-2c7.92,0,15.74.1,23.54-.39a120.18,120.18,0,0,0,23-3.48,58.76,58.76,0,0,0,20.81-9.81,42.23,42.23,0,0,0,8-8.25c.52-.8,1.07-1.59,1.58-2.41s1-1.67,1.38-2.54a25,25,0,0,0,2-5.36l0-.08a.65.65,0,1,1,1.26.28Z"/><path d="M274,111.94c.2-3.27.55-6.13,1-8.85s.89-5.3,1.38-7.83c.25-1.26.62-2.46.94-3.69.18-.61.39-1.21.62-1.8s.48-1.19.69-1.8c.46-1.2,1-2.4,1.44-3.64s.77-2.5,1.08-3.78.46-2.59.71-3.89l.33-2c.09-.66.12-1.33.19-2l.43-4,.1-4.06.08-2.06c0-.69-.05-1.37-.08-2-.06-1.38-.14-2.76-.18-4.16a16.06,16.06,0,0,0-.17-2.08l-.25-2.08L281.88,48v-.06a.65.65,0,0,1,.58-.72.67.67,0,0,1,.66.37c1.23,2.58,2.54,5.19,3.6,7.9.5,1.37.95,2.76,1.43,4.15.23.7.49,1.39.69,2.1l.54,2.14a67.3,67.3,0,0,1,2.12,17.81c-.07,1.51-.07,3-.07,4.59s-.15,3.08-.26,4.63a22.66,22.66,0,0,1-.86,4.56,21.78,21.78,0,0,1-1.73,4.32,31.52,31.52,0,0,1-5.45,7.62,22,22,0,0,1-8.1,5.39.76.76,0,0,1-1-.46,1,1,0,0,1,0-.3Z"/></g></g></g></svg>