<svg xmlns="http://www.w3.org/2000/svg" viewBox="0 0 385.88 520.32"><defs><style>.cls-1,.cls-2{fill:#fff;}.cls-1{stroke:#000;stroke-linecap:round;stroke-linejoin:round;stroke-width:13px;}</style></defs><title>Mano SX</title><g id="Livello_2" data-name="Livello 2"><g id="Mano_SX" data-name="Mano SX"><g id="Livello_10" data-name="Livello 10"><path class="cls-1" d="M49.3,253.84S2.68,259.57,6.75,153c0,0,5.84-61,69.39-75.83,0,0,38.53-2.23,41.61,28.88S124,245.51,49.3,253.84Z"/></g><g id="Livello_7" data-name="Livello 7"><path class="cls-2" d="M48.34,198.74S35.85,277,83.46,329.71s62,85.89,62,85.89l30.72,72s20.81,38.77,60.59,21.95.26-98.88.26-98.88S199.74,282,197.45,172.05c0,0,97.67-57,71.1-140.31,0,0-10.66-28.32-33.83-25,0,0-19-5.71-37.8,54.34,0,0-1.46,26.89-73.07,41.49,0,0-29.14,13.37-63.6,59.11"/><path d="M48.34,198.74A197.73,197.73,0,0,0,49.51,239a180.28,180.28,0,0,0,9.15,38.78,154.79,154.79,0,0,0,7.87,18.08,128.56,128.56,0,0,0,10.24,16.61q2.85,3.94,6,7.61c1,1.23,2.13,2.41,3.21,3.6l3.42,3.58,7.07,7.41q3.48,3.76,6.8,7.66c2.25,2.57,4.31,5.32,6.44,8s4.22,5.39,6.31,8.09,4.16,5.44,6.22,8.18,4,5.54,6,8.32,3.91,5.64,5.85,8.48,3.79,5.74,5.6,8.68c3.66,5.87,7.16,11.8,10.34,18.16.41.81.78,1.58,1.21,2.53l1,2.4,2,4.66,4,9.32,8,18.65,15.9,37.29-.25-.53.52.89.65,1c.45.68.92,1.37,1.41,2,1,1.35,2,2.66,3.14,3.93a51.76,51.76,0,0,0,7.23,6.83,37.41,37.41,0,0,0,17.33,7.66,39.17,39.17,0,0,0,19-2.13,45.73,45.73,0,0,0,4.44-1.82,22.77,22.77,0,0,0,3.59-2.28,21.09,21.09,0,0,0,3-2.94,22.26,22.26,0,0,0,2.32-3.61c2.7-5.23,3.64-11.93,3.55-18.75a105.35,105.35,0,0,0-2.71-20.91,188.12,188.12,0,0,0-6-20.83q-1.8-5.15-3.83-10.22-1-2.54-2.1-5c-.71-1.64-1.47-3.36-2.18-4.87l0-.07a6.67,6.67,0,0,1-.35-.94c-2.8-9.89-5.35-19.67-7.81-29.54s-4.8-19.73-7-29.64c-4.45-19.81-8.48-39.72-12-59.74s-6.47-40.14-8.75-60.37c-1.16-10.12-2.06-20.27-2.82-30.44s-1.2-20.38-1.46-30.6a6.44,6.44,0,0,1,3.15-5.71l.08,0c.77-.46,1.74-1.07,2.61-1.63s1.8-1.17,2.69-1.77c1.79-1.21,3.57-2.45,5.32-3.72q5.26-3.82,10.29-8A193.31,193.31,0,0,0,234,133.48c11.67-12.69,21.48-27.12,27.22-43a88.82,88.82,0,0,0,5.23-24.42,85.74,85.74,0,0,0-2-24.82c-.49-2-1-4.09-1.59-6l-.21-.72-.11-.36-.05-.19,0-.09v0l0,.08-.21-.5-.28-.64c-.39-.88-.83-1.77-1.29-2.65a44.79,44.79,0,0,0-6.7-9.57,25.25,25.25,0,0,0-8.57-6.24,18.06,18.06,0,0,0-9.75-1.18L232.84,13l.28.07.07,0,.12,0h-.19a4.43,4.43,0,0,0-.92.19,11,11,0,0,0-2.43,1.1,24.37,24.37,0,0,0-5.21,4.42,65.11,65.11,0,0,0-8.88,13A141,141,0,0,0,208.75,47c-2.05,5.24-3.93,10.59-5.6,16l.29-1.6,0,.37,0,.19,0,.37-.1.6c-.07.35-.14.73-.23,1-.16.67-.35,1.28-.55,1.88a27.9,27.9,0,0,1-1.37,3.33A33.91,33.91,0,0,1,197.56,75a44.56,44.56,0,0,1-9,8.74,80.32,80.32,0,0,1-10.06,6.36c-3.45,1.83-7,3.43-10.49,4.9a167.76,167.76,0,0,1-21.55,7c-7.26,1.85-14.55,3.32-21.86,4.54l.85-.28c-.63.26-1.47.66-2.22,1s-1.54.8-2.32,1.2c-1.54.84-3.08,1.7-4.59,2.64-3,1.81-6,3.82-9,5.87a204.54,204.54,0,0,0-16.89,13.46l-4,3.63c-1.34,1.22-2.63,2.5-3.94,3.74-2.67,2.47-5.16,5.11-7.71,7.69s-4.94,5.34-7.42,8l-7.16,8.27c2.1-3,4.17-6,6.31-9s4.37-5.86,6.68-8.71,4.58-5.72,7-8.45c1.21-1.38,2.39-2.79,3.63-4.15l3.76-4a210.89,210.89,0,0,1,16.09-15.23c2.85-2.38,5.74-4.72,8.79-6.9,1.5-1.12,3.06-2.17,4.63-3.22.81-.51,1.59-1,2.42-1.53s1.61-1,2.63-1.5a2.34,2.34,0,0,1,.5-.19l.35-.09c7-1.74,14-3.69,20.72-6a157.85,157.85,0,0,0,19.64-8c3.12-1.58,6.15-3.26,9-5.09a67.86,67.86,0,0,0,8-6A48.86,48.86,0,0,0,187,66.88a24.94,24.94,0,0,0,2.32-3.54,13.31,13.31,0,0,0,.78-1.71c.09-.26.18-.53.24-.75s0-.19.07-.29l0-.08,0,.25.29-1.6c1.86-5.65,3.76-11.31,6-16.89a152.4,152.4,0,0,1,7.58-16.55A76.68,76.68,0,0,1,215,10a36.9,36.9,0,0,1,8.1-6.77A24,24,0,0,1,228.63.83,17.77,17.77,0,0,1,232,.19a16.88,16.88,0,0,1,1.91,0A10.71,10.71,0,0,1,235,.23a5.3,5.3,0,0,1,.63.09l.38.07.2,0,.41.11-2.8-.21A31.27,31.27,0,0,1,250.4,2.39a38.21,38.21,0,0,1,13.07,9.36,58.07,58.07,0,0,1,8.69,12.38c.58,1.1,1.13,2.22,1.66,3.39l.39.89.19.47.24.59.58,1.9c.75,2.4,1.31,4.69,1.87,7A98.72,98.72,0,0,1,279.4,67a101.65,101.65,0,0,1-6,28,125.41,125.41,0,0,1-12.69,25.28,163.34,163.34,0,0,1-17.19,22,207.39,207.39,0,0,1-20.16,19.07q-5.34,4.41-10.94,8.49c-1.88,1.36-3.77,2.68-5.7,4-1,.65-1.94,1.29-2.92,1.93s-1.94,1.23-3.1,1.92l3.23-5.76q.38,15,1.42,30c.76,10,1.64,20,2.78,29.92,2.24,19.92,5.18,39.79,8.64,59.58s7.44,39.51,11.84,59.13q3.31,14.72,7,29.35c2.43,9.73,5,19.51,7.69,29.06l-.39-1c.89,1.88,1.64,3.58,2.41,5.37s1.5,3.55,2.22,5.33c1.43,3.57,2.78,7.16,4.05,10.8A200.68,200.68,0,0,1,258,451.68a116.84,116.84,0,0,1,3,23.55,68,68,0,0,1-.92,12.39A44,44,0,0,1,256,500.11a36.44,36.44,0,0,1-3.76,5.81,33.85,33.85,0,0,1-5,4.95,35.63,35.63,0,0,1-5.86,3.74,59.55,59.55,0,0,1-5.94,2.45,52.18,52.18,0,0,1-25.22,2.73,50.42,50.42,0,0,1-23.33-10.23,63.9,63.9,0,0,1-9.06-8.55c-1.36-1.56-2.66-3.17-3.88-4.84-.61-.84-1.2-1.69-1.78-2.57l-.85-1.35-.43-.71-.47-.83c-.07-.13-.14-.27-.2-.41l-.05-.11L154.3,452.92l-8-18.64-4-9.32-2-4.66-1-2.26c-.27-.58-.63-1.34-1-2-2.86-5.71-6.22-11.44-9.71-17-1.73-2.82-3.57-5.57-5.39-8.35s-3.72-5.49-5.65-8.2-3.85-5.42-5.87-8.07-4-5.34-6-8c-4.07-5.28-8.44-10.33-12.71-15.46-2.16-2.54-4.24-5.16-6.33-7.77l-6.35-7.77-3.29-4c-1.09-1.39-2.19-2.78-3.22-4.22q-3.15-4.26-5.91-8.77A143.88,143.88,0,0,1,51.57,280a185.63,185.63,0,0,1-6-40.68q-.36-10.24.3-20.43A160.22,160.22,0,0,1,48.34,198.74Z"/><path d="M61.58,247.43c2,3.49,3.91,6.93,6,10.22s4.18,6.49,6.34,9.51a31,31,0,0,0,3.76,4.07,14.64,14.64,0,0,1,3,4.16,49.84,49.84,0,0,1,2,4.94c.63,1.81,1.25,3.72,2,6.27v0a.89.89,0,0,1-.58,1.1h0a12.91,12.91,0,0,1-7.53-.57,18.67,18.67,0,0,1-6-3.63,14.08,14.08,0,0,1-3.79-5.44c-.8-2.06-1.37-4.17-2.1-6.14a68,68,0,0,1-3.2-12,74.71,74.71,0,0,1-1.19-12.21.67.67,0,0,1,1.25-.33Z"/><path d="M63.47,221.32c3,4,6,7.86,9.11,11.55s6.34,7.25,9.63,10.57a43.92,43.92,0,0,0,5.4,4.39,27.4,27.4,0,0,1,4.83,4.52c1.41,1.69,2.73,3.48,4.12,5.36s2.8,3.9,4.46,6.45l0,0a.81.81,0,0,1-.24,1.11.82.82,0,0,1-.19.09,16.71,16.71,0,0,1-8.81.17A24.4,24.4,0,0,1,84,262.27a20.35,20.35,0,0,1-3.22-2.52,21.3,21.3,0,0,1-2.58-3.11c-1.53-2.22-2.8-4.57-4.19-6.75a87.71,87.71,0,0,1-7-13.65,95.77,95.77,0,0,1-4.74-14.39.67.67,0,0,1,.5-.8.68.68,0,0,1,.68.25Z"/><path d="M76.43,209.57a88.22,88.22,0,0,0,9.4,4.38,96.73,96.73,0,0,0,9.36,3.11,15.69,15.69,0,0,0,2.37.43l2.39.18a12.58,12.58,0,0,1,2.25.35,16.36,16.36,0,0,1,2.1.83,33.35,33.35,0,0,1,8.82,6.89h0a1,1,0,0,1,0,1.29,13.79,13.79,0,0,1-2.77,2.21,16.35,16.35,0,0,1-1.46.82c-.49.22-1,.4-1.49.57a21.55,21.55,0,0,1-3,.75,21.88,21.88,0,0,1-3,.12A9.89,9.89,0,0,1,98.4,231a12.58,12.58,0,0,1-2.71-1.2c-.84-.55-1.66-1.11-2.47-1.67s-1.58-1.16-2.4-1.66a47.23,47.23,0,0,1-8.68-7.19,45.53,45.53,0,0,1-6.65-8.83.67.67,0,0,1,.9-.92Z"/></g><g id="Livello_8" data-name="Livello 8"><path class="cls-2" d="M155,342.4s129,130.48,183,61.81c0,0,17-46.58-42.78-71.24,0,0-87-22.54-101.34-85.2"/><path d="M155,342.4q21.79,16,44.32,30.13c3.88,2.17,7,5.32,10.65,7.79s7.17,5.07,10.82,7.5c7.29,4.85,14.76,9.4,22.42,13.49a174.62,174.62,0,0,0,23.55,10.57,97.93,97.93,0,0,0,24.42,5.58,50.88,50.88,0,0,0,23.36-3.12,45,45,0,0,0,18.34-14.15l-1,1.79.12-.38.16-.54c.11-.37.21-.76.31-1.16.19-.79.36-1.6.51-2.42a49,49,0,0,0,.62-5,48.42,48.42,0,0,0-.37-10.07A45.21,45.21,0,0,0,326,363.81a55.79,55.79,0,0,0-6.5-7.87c-1.27-1.17-2.47-2.41-3.85-3.49-.67-.55-1.32-1.13-2-1.66l-2.12-1.56A91.39,91.39,0,0,0,292.69,339l.85.28c-1.63-.43-3-.85-4.45-1.29s-2.85-.91-4.26-1.38c-2.83-1-5.62-2-8.4-3q-8.32-3.19-16.38-7a188,188,0,0,1-30.77-18.34c-4.7-3.73-9.87-7.05-13.59-12a115.32,115.32,0,0,1-10.63-14.8A96.06,96.06,0,0,1,197.5,265c-.44-1.43-.89-2.85-1.3-4.27l-.31-1.07-.24-1.09-.47-2.17a76.11,76.11,0,0,1-1.35-8.67,94.08,94.08,0,0,0,7.72,15.34,97.78,97.78,0,0,0,10.35,13.2c7.66,8.13,16.74,14.33,25.14,21.44a175.33,175.33,0,0,0,28.62,17q7.57,3.61,15.43,6.63,3.92,1.5,7.88,2.84c1.32.44,2.65.88,4,1.29s2.7.82,3.86,1.13h.05a7.52,7.52,0,0,1,.8.27,105.06,105.06,0,0,1,21.46,11.71l2.5,1.85c.83.63,1.62,1.33,2.43,2,1.63,1.29,3.12,2.79,4.66,4.23a70.09,70.09,0,0,1,8.12,9.84,58.26,58.26,0,0,1,9.23,23.95,60.85,60.85,0,0,1,.48,12.86,63.2,63.2,0,0,1-.8,6.4c-.19,1.06-.41,2.13-.68,3.2-.13.53-.27,1.08-.42,1.62l-.25.84-.14.44-.19.55a5.5,5.5,0,0,1-.91,1.69l-.08.09a63.23,63.23,0,0,1-10.56,10.57,54.69,54.69,0,0,1-13.12,7.6,63.83,63.83,0,0,1-29.28,4,111,111,0,0,1-27.72-6.28,188.71,188.71,0,0,1-25.33-11.36c-8.1-4.33-15.92-9.09-23.5-14.14q-5.69-3.78-11.22-7.77c-3.61-2.76-7.64-5-10.84-8.24q-9.93-9.4-19.1-19.44C166.28,356.51,160.41,349.61,155,342.4Z"/><path class="cls-2" d="M174.68,281.88s75.21-11.87,122,8.14A76,76,0,0,0,336.34,296c18.23-2.38,38.77-11.48,42.51-39.68,7-52.55-51.11-65.63-51.11-65.63s-21.07-1.18-80.94,1.45c0,0-39.42-1.55-72-30.58"/><path d="M174.68,281.88c3.22-.95,6.48-1.76,9.76-2.54s6.56-1.49,9.86-2.12c6.61-1.28,13.27-2.46,20-3.3s13.48-1.52,20.29-1.93a79.1,79.1,0,0,1,10.19.56q5.1.33,10.2.89c13.58,1.5,27.24,4.06,40.45,9.09l4.77,1.92c1.42.59,2.86,1.13,4.31,1.63a73.1,73.1,0,0,0,8.83,2.45,66.66,66.66,0,0,0,18.07,1.37c12-.87,24.17-4.66,31.6-12.89a34.43,34.43,0,0,0,8-14.68,55.88,55.88,0,0,0,1.86-17.6c-.49-11.81-5.94-22.63-14.68-30.74a58.61,58.61,0,0,0-7-5.65,71,71,0,0,0-7.84-4.74,86.43,86.43,0,0,0-8.42-3.83c-1.43-.56-2.89-1.09-4.34-1.56-.73-.24-1.46-.46-2.18-.68l-1.07-.3-.95-.24,1.06.15c-1.47-.07-3.2-.12-4.83-.16l-5-.07c-3.34,0-6.68,0-10,0q-10,.06-20.12.3c-13.43.31-26.88.8-40.33,1.39h-.54l-1.48-.1c-.47,0-.92-.07-1.36-.12-.9-.08-1.79-.18-2.65-.3-1.77-.2-3.49-.5-5.22-.77l-5.16-.86a32.71,32.71,0,0,1-5-1.35c-1.64-.62-3.28-1.19-4.89-1.84l-4.81-2-4.7-2.21c-1.57-.71-3.07-1.59-4.6-2.38l-2.27-1.21-2.22-1.32c-1.47-.9-2.94-1.77-4.37-2.71-2.81-2-5.67-3.83-8.29-6-1.32-1.07-2.7-2-4-3.19l-3.74-3.44c-1.26-1.1-2.41-2.34-3.57-3.56l-3.42-3.67,4.22,2.69c1.4.9,2.77,1.81,4.25,2.57l4.32,2.39c1.43.79,3,1.45,4.41,2.17,2.9,1.5,6,2.64,9,3.88,1.51.59,3.07,1.07,4.58,1.62l2.28.81,2.32.69c1.55.44,3,1,4.62,1.33l4.66,1.16,4.69.94c1.56.3,3.14.51,4.71.77,3.14.4,6.13,1.41,9.23,2,1.54.24,3.09.51,4.62.68.77.11,1.53.19,2.29.26.38,0,.76.08,1.12.1l1,.07h-.54c13.52-.59,27-1.09,40.6-1.4q10.15-.24,20.35-.3c3.4,0,6.81,0,10.22,0l5.14.08c1.74,0,3.38.08,5.28.17a5.31,5.31,0,0,1,1.06.15c.61.14,1,.24,1.47.37l1.33.37c.87.26,1.73.52,2.58.8,1.71.56,3.38,1.16,5,1.81a97.81,97.81,0,0,1,9.73,4.43,84.12,84.12,0,0,1,9.21,5.57,70.2,70.2,0,0,1,8.5,6.85,61.32,61.32,0,0,1,7.42,8.24c1.16,1.45,2.13,3.07,3.17,4.62s1.91,3.23,2.67,5a57.11,57.11,0,0,1,3.86,10.59A60.43,60.43,0,0,1,385.78,244a68.46,68.46,0,0,1-2.32,21.89,47.31,47.31,0,0,1-10.94,20l-2,2.09c-.7.66-1.46,1.27-2.19,1.9a49.51,49.51,0,0,1-4.62,3.45c-.81.51-1.64,1-2.46,1.46l-1.24.71c-.41.23-.84.42-1.26.63l-2.55,1.23-2.6,1-1.3.51-1.32.43c-.88.28-1.76.58-2.64.84-1.77.45-3.54,1-5.33,1.28a76,76,0,0,1-10.77,1.47,80,80,0,0,1-21.58-1.63,87.57,87.57,0,0,1-10.38-2.88q-2.55-.87-5-1.9l-4.48-1.8c-11.67-4.46-24.38-6.9-37.19-8.31q-4.81-.53-9.68-.84c-1.61-.13-3.24-.11-4.86-.14s-3.25-.09-4.87-.28c-6.48-.82-13-1.44-19.6-1.94Q194.81,281.69,174.68,281.88Z"/></g></g></g></svg>