<svg xmlns="http://www.w3.org/2000/svg" viewBox="0 0 234.16 520.32"><defs><style>.cls-1{fill:#fff;}</style></defs><title>Livello 7</title><g id="Livello_2" data-name="Livello 2"><g id="Mano_SX" data-name="Mano SX"><g id="Livello_7" data-name="Livello 7"><path class="cls-1" d="M2.89,198.74S-9.61,277,38,329.71s62,85.89,62,85.89l30.72,72s20.81,38.77,60.59,21.95.27-98.88.27-98.88S154.28,282,152,172.05c0,0,97.67-57,71.1-140.31,0,0-10.66-28.32-33.83-25,0,0-19-5.71-37.8,54.34,0,0-1.46,26.89-73.06,41.49,0,0-29.15,13.37-63.61,59.11"/><path d="M2.89,198.74A196.3,196.3,0,0,0,4.06,239a179.1,179.1,0,0,0,9.15,38.78,153.06,153.06,0,0,0,7.86,18.08,128.56,128.56,0,0,0,10.24,16.61q2.85,3.94,6,7.61c1,1.23,2.13,2.41,3.22,3.6L44,327.28,51,334.69q3.48,3.76,6.8,7.66c2.25,2.57,4.31,5.32,6.44,8s4.22,5.39,6.31,8.09,4.17,5.44,6.22,8.18,4,5.54,6,8.32,3.91,5.64,5.85,8.48,3.8,5.74,5.61,8.68c3.65,5.87,7.15,11.8,10.34,18.16.4.81.77,1.58,1.2,2.53l1,2.4,2,4.66,4,9.32,8,18.65,15.9,37.29-.25-.53.52.89.65,1c.45.68.92,1.37,1.41,2q1.48,2,3.14,3.93a52.32,52.32,0,0,0,7.23,6.83,37.41,37.41,0,0,0,17.33,7.66,39.17,39.17,0,0,0,19-2.13,45.73,45.73,0,0,0,4.44-1.82,22.77,22.77,0,0,0,3.59-2.28,21.09,21.09,0,0,0,3-2.94,22.26,22.26,0,0,0,2.32-3.61c2.7-5.23,3.64-11.93,3.55-18.75a104.61,104.61,0,0,0-2.71-20.91,186,186,0,0,0-6-20.83q-1.8-5.15-3.83-10.22-1-2.54-2.1-5c-.7-1.64-1.47-3.36-2.18-4.87l0-.07a6.67,6.67,0,0,1-.35-.94c-2.8-9.89-5.35-19.67-7.81-29.54s-4.79-19.73-7-29.64q-6.68-29.71-12-59.74c-3.5-20-6.47-40.14-8.75-60.37-1.16-10.12-2.05-20.27-2.82-30.44s-1.2-20.38-1.46-30.6a6.46,6.46,0,0,1,3.15-5.71l.08,0c.77-.46,1.74-1.07,2.61-1.63L154,163c1.78-1.21,3.56-2.45,5.31-3.72q5.26-3.82,10.3-8a194.34,194.34,0,0,0,18.88-17.85c11.67-12.69,21.48-27.12,27.22-43A88.82,88.82,0,0,0,221,66.1a85.74,85.74,0,0,0-2-24.82c-.49-2-1-4.09-1.59-6l-.21-.72-.11-.36L217,34l0-.09v0s0-.13,0,.08l-.2-.5-.29-.64c-.39-.88-.83-1.77-1.29-2.65a44.79,44.79,0,0,0-6.7-9.57,25.15,25.15,0,0,0-8.57-6.24,18.06,18.06,0,0,0-9.75-1.18L187.38,13l.28.07.08,0,.11,0h-.19a4.7,4.7,0,0,0-.92.19,11,11,0,0,0-2.43,1.1,24.37,24.37,0,0,0-5.21,4.42,65.11,65.11,0,0,0-8.88,13A141,141,0,0,0,163.29,47c-2,5.24-3.93,10.59-5.6,16l.29-1.6,0,.37,0,.19,0,.37-.1.6c-.07.35-.14.73-.23,1-.16.67-.35,1.28-.54,1.88a29.69,29.69,0,0,1-1.38,3.33A34.53,34.53,0,0,1,152.11,75a45.09,45.09,0,0,1-9,8.74,81.15,81.15,0,0,1-10.07,6.36c-3.45,1.83-7,3.43-10.49,4.9a167.76,167.76,0,0,1-21.55,7c-7.25,1.85-14.55,3.32-21.86,4.54l.85-.28c-.63.26-1.47.66-2.22,1s-1.54.8-2.32,1.2c-1.53.84-3.08,1.7-4.59,2.64-3.05,1.81-6,3.82-9,5.87a206.23,206.23,0,0,0-16.89,13.46L41,134c-1.34,1.22-2.63,2.5-3.94,3.74-2.67,2.47-5.16,5.11-7.71,7.69s-4.94,5.34-7.42,8l-7.16,8.27c2.1-3,4.17-6,6.31-9s4.38-5.86,6.68-8.71,4.58-5.72,7-8.45c1.21-1.38,2.39-2.79,3.63-4.15l3.76-4a212.77,212.77,0,0,1,16.09-15.23c2.85-2.38,5.75-4.72,8.79-6.9,1.5-1.12,3.06-2.17,4.63-3.22.81-.51,1.59-1,2.43-1.53s1.6-1,2.62-1.5a2.34,2.34,0,0,1,.5-.19l.35-.09c7-1.74,14-3.69,20.72-6a158,158,0,0,0,19.65-8c3.11-1.58,6.14-3.26,9-5.09a68.81,68.81,0,0,0,8-6,49.36,49.36,0,0,0,6.48-6.76,25,25,0,0,0,2.33-3.54,14.69,14.69,0,0,0,.77-1.71c.09-.26.18-.53.24-.75s0-.19.07-.29l0-.08,0,.25.29-1.6c1.86-5.65,3.76-11.31,6-16.89a152.4,152.4,0,0,1,7.58-16.55A77.08,77.08,0,0,1,169.55,10a37.14,37.14,0,0,1,8.1-6.77A24,24,0,0,1,183.17.83a17.77,17.77,0,0,1,3.35-.64,17,17,0,0,1,1.92,0c.32,0,.7,0,1.07.09a5.3,5.3,0,0,1,.63.09l.38.07.21,0,.41.11L188.33.34a31.27,31.27,0,0,1,16.61,2.05A38.12,38.12,0,0,1,218,11.75a57.72,57.72,0,0,1,8.69,12.38c.59,1.1,1.14,2.22,1.66,3.39l.39.89.2.47.23.59.58,1.9c.75,2.4,1.31,4.69,1.88,7A99.07,99.07,0,0,1,233.94,67a101.65,101.65,0,0,1-6,28,125.41,125.41,0,0,1-12.69,25.28,163.34,163.34,0,0,1-17.19,22,208.44,208.44,0,0,1-20.15,19.07q-5.34,4.41-11,8.49c-1.87,1.36-3.77,2.68-5.7,4-1,.65-1.94,1.29-2.92,1.93s-1.94,1.23-3.09,1.92l3.22-5.76q.38,15,1.43,30c.75,10,1.63,20,2.77,29.92,2.24,19.92,5.18,39.79,8.64,59.58s7.44,39.51,11.84,59.13q3.32,14.72,7,29.35c2.43,9.73,5,19.51,7.69,29.06l-.39-1c.89,1.88,1.64,3.58,2.41,5.37s1.5,3.55,2.22,5.33c1.43,3.57,2.78,7.16,4,10.8a200.68,200.68,0,0,1,6.42,22.29,116.84,116.84,0,0,1,3,23.55,67.11,67.11,0,0,1-.92,12.39,44,44,0,0,1-4.07,12.49,35.76,35.76,0,0,1-3.76,5.81,34.27,34.27,0,0,1-5,4.95,35.71,35.71,0,0,1-5.87,3.74,58.59,58.59,0,0,1-5.94,2.45,52.16,52.16,0,0,1-25.22,2.73,50.38,50.38,0,0,1-23.32-10.23,63.45,63.45,0,0,1-9.07-8.55c-1.36-1.56-2.66-3.17-3.87-4.84-.61-.84-1.21-1.69-1.78-2.57l-.86-1.35-.42-.71-.48-.83c-.07-.13-.14-.27-.2-.41l0-.11-15.89-37.27-8-18.64-4-9.32-2-4.66L94,418c-.27-.58-.63-1.34-1-2-2.86-5.71-6.22-11.44-9.71-17-1.73-2.82-3.57-5.57-5.39-8.35s-3.72-5.49-5.65-8.2-3.85-5.42-5.87-8.07-4-5.34-6-8c-4.07-5.28-8.43-10.33-12.71-15.46-2.16-2.54-4.24-5.16-6.33-7.77l-6.35-7.77-3.28-4c-1.1-1.39-2.2-2.78-3.23-4.22q-3.15-4.26-5.91-8.77A144.2,144.2,0,0,1,6.11,280a185,185,0,0,1-6-40.68q-.36-10.24.29-20.43A160.24,160.24,0,0,1,2.89,198.74Z"/><path d="M16.12,247.43c2,3.49,3.91,6.93,6,10.22s4.18,6.49,6.34,9.51a32.39,32.39,0,0,0,3.76,4.07,14.64,14.64,0,0,1,3,4.16,49.84,49.84,0,0,1,2,4.94c.64,1.81,1.25,3.72,2,6.27v0a.89.89,0,0,1-.58,1.1h0a12.94,12.94,0,0,1-7.54-.57,18.67,18.67,0,0,1-6-3.63,14,14,0,0,1-3.78-5.44c-.81-2.06-1.38-4.17-2.11-6.14A68,68,0,0,1,16,260a75.82,75.82,0,0,1-1.19-12.21.67.67,0,0,1,.67-.67.69.69,0,0,1,.59.34Z"/><path d="M18,221.32c3,4,6,7.86,9.11,11.55s6.34,7.25,9.63,10.57a43.92,43.92,0,0,0,5.4,4.39A27.4,27.4,0,0,1,47,252.35c1.41,1.69,2.74,3.48,4.12,5.36s2.8,3.9,4.46,6.45l0,0a.8.8,0,0,1-.24,1.11.82.82,0,0,1-.19.09,16.71,16.71,0,0,1-8.81.17,24.4,24.4,0,0,1-7.76-3.29,20.35,20.35,0,0,1-3.22-2.52,21.3,21.3,0,0,1-2.58-3.11c-1.52-2.22-2.8-4.57-4.19-6.75a87.71,87.71,0,0,1-7-13.65,95.77,95.77,0,0,1-4.74-14.39A.67.67,0,0,1,18,221.3Z"/><path d="M31,209.57A88.08,88.08,0,0,0,40.37,214a96.73,96.73,0,0,0,9.36,3.11,15.69,15.69,0,0,0,2.37.43l2.39.18a12.58,12.58,0,0,1,2.25.35,16.36,16.36,0,0,1,2.1.83,33.35,33.35,0,0,1,8.82,6.89h0a1,1,0,0,1,0,1.29,14,14,0,0,1-2.76,2.21,15.21,15.21,0,0,1-1.47.82c-.49.22-1,.4-1.49.57a21.55,21.55,0,0,1-3.05.75,21.88,21.88,0,0,1-3,.12,9.94,9.94,0,0,1-2.93-.49,12.29,12.29,0,0,1-2.7-1.2c-.85-.55-1.67-1.11-2.48-1.67s-1.58-1.16-2.39-1.66a47,47,0,0,1-8.69-7.19A45.53,45.53,0,0,1,30,210.47a.67.67,0,0,1,.9-.92Z"/></g></g></g></svg>