<svg xmlns="http://www.w3.org/2000/svg" viewBox="0 0 230.92 269.15"><defs><style>.cls-1{fill:#fff;}</style></defs><title>Livello 8</title><g id="Livello_2" data-name="Livello 2"><g id="Mano_SX" data-name="Mano SX"><g id="Livello_8" data-name="Livello 8"><path class="cls-1" d="M0,180.88s129.05,130.48,183,61.81c0,0,17-46.58-42.78-71.24,0,0-87-22.54-101.34-85.21"/><path d="M0,180.88C14.53,191.56,29.29,201.65,44.32,211c3.88,2.17,7,5.31,10.65,7.79s7.17,5.07,10.82,7.49c7.29,4.86,14.76,9.4,22.42,13.5a174.62,174.62,0,0,0,23.55,10.57,97.93,97.93,0,0,0,24.42,5.58,51,51,0,0,0,23.36-3.12,45,45,0,0,0,18.34-14.15l-1,1.79.12-.38.16-.54c.11-.38.21-.76.3-1.16.2-.79.37-1.6.52-2.42a49,49,0,0,0,.62-5,47.74,47.74,0,0,0-.38-10.07,45.1,45.1,0,0,0-7.17-18.6,55.71,55.71,0,0,0-6.5-7.86c-1.27-1.18-2.47-2.41-3.85-3.49-.67-.55-1.32-1.13-2-1.66l-2.12-1.56a91.9,91.9,0,0,0-18.83-10.26l.85.29c-1.63-.43-3-.85-4.45-1.3s-2.85-.91-4.26-1.38c-2.83-.95-5.62-2-8.4-3q-8.32-3.18-16.38-7a189.47,189.47,0,0,1-30.77-18.34c-4.7-3.73-9.87-7.06-13.59-12A114.53,114.53,0,0,1,50.1,119.89a95.64,95.64,0,0,1-7.56-16.37c-.44-1.43-.89-2.85-1.3-4.28l-.31-1.06-.24-1.09-.47-2.17a75.93,75.93,0,0,1-1.35-8.68,93.78,93.78,0,0,0,7.72,15.35,97.78,97.78,0,0,0,10.35,13.2c7.66,8.13,16.74,14.32,25.14,21.44a175.33,175.33,0,0,0,28.62,17q7.58,3.61,15.43,6.63,3.92,1.5,7.88,2.84c1.32.44,2.65.88,4,1.28s2.7.83,3.86,1.13l0,0a7.52,7.52,0,0,1,.8.27,105.06,105.06,0,0,1,21.46,11.71l2.5,1.85c.83.63,1.62,1.32,2.43,2,1.63,1.29,3.12,2.79,4.66,4.23a69,69,0,0,1,8.12,9.84A58.26,58.26,0,0,1,191.09,219a61.5,61.5,0,0,1,.48,12.86,63.2,63.2,0,0,1-.8,6.4c-.19,1.06-.41,2.13-.68,3.2q-.19.79-.42,1.62l-.25.84-.14.44-.19.54a5.48,5.48,0,0,1-.92,1.7l-.07.09a63.23,63.23,0,0,1-10.56,10.57,54.69,54.69,0,0,1-13.12,7.6,63.83,63.83,0,0,1-29.28,4,110.59,110.59,0,0,1-27.72-6.29,188.66,188.66,0,0,1-25.33-11.35c-8.1-4.34-15.92-9.09-23.5-14.14q-5.69-3.78-11.22-7.78c-3.61-2.75-7.64-5-10.84-8.24q-9.93-9.4-19.1-19.43C11.32,195,5.45,188.08,0,180.88Z"/><path class="cls-1" d="M19.72,120.35s75.21-11.86,122,8.15a76,76,0,0,0,39.69,5.94c18.23-2.38,38.76-11.48,42.51-39.69,7-52.54-51.12-65.63-51.12-65.63s-21.06-1.18-80.93,1.45c0,0-39.42-1.54-72-30.57"/><path d="M19.72,120.35c3.22-.95,6.48-1.75,9.75-2.53s6.57-1.49,9.87-2.13c6.61-1.27,13.27-2.45,20-3.29s13.47-1.53,20.29-1.93A80.93,80.93,0,0,1,89.8,111c3.4.23,6.8.52,10.2.9,13.58,1.5,27.24,4.06,40.45,9.09l4.77,1.92c1.42.59,2.86,1.13,4.31,1.63a75,75,0,0,0,8.83,2.45,67.06,67.06,0,0,0,18.07,1.37c12-.87,24.17-4.66,31.6-12.89a34.49,34.49,0,0,0,8-14.68,55.88,55.88,0,0,0,1.86-17.6c-.49-11.81-5.94-22.63-14.68-30.74a58.61,58.61,0,0,0-7-5.65,69.47,69.47,0,0,0-7.84-4.74,86.43,86.43,0,0,0-8.42-3.83c-1.43-.57-2.89-1.09-4.34-1.56-.73-.24-1.46-.47-2.18-.68l-1.07-.3-1-.24,1.06.14c-1.47-.07-3.2-.11-4.83-.15l-5-.07c-3.34,0-6.68,0-10,0q-10,.06-20.12.3c-13.43.31-26.88.8-40.33,1.39h-.54L90.1,37c-.47,0-.92-.08-1.36-.12-.9-.09-1.79-.18-2.66-.3-1.76-.2-3.48-.5-5.21-.77l-5.16-.86a35.14,35.14,0,0,1-5-1.35C69,33,67.38,32.38,65.77,31.72l-4.81-2-4.7-2.21c-1.57-.71-3.07-1.59-4.6-2.38l-2.27-1.21-2.22-1.32c-1.47-.9-2.94-1.77-4.37-2.72-2.81-2-5.67-3.83-8.29-6-1.32-1.07-2.7-2-4-3.2L26.81,7.23c-1.26-1.1-2.41-2.34-3.57-3.56L19.81,0,24,2.68c1.4.9,2.77,1.82,4.25,2.58l4.32,2.38c1.43.8,3,1.46,4.41,2.18,2.9,1.5,6,2.64,9,3.88,1.51.58,3.07,1.07,4.58,1.62l2.28.8,2.32.7c1.55.44,3.05,1,4.62,1.33l4.66,1.15,4.69.95c1.56.3,3.14.51,4.7.77C77,21.41,80,22.43,83.07,23c1.54.24,3.09.5,4.62.68.77.11,1.53.19,2.29.26.38,0,.76.08,1.12.1l1,.07h-.54c13.52-.59,27-1.09,40.6-1.4q10.15-.24,20.35-.3c3.4,0,6.81,0,10.22,0l5.14.08c1.74,0,3.38.07,5.28.16a7.31,7.31,0,0,1,1.06.15c.61.14,1,.25,1.47.37l1.33.38c.87.25,1.73.52,2.58.8,1.71.56,3.38,1.16,5,1.81a97.81,97.81,0,0,1,9.73,4.43,82.59,82.59,0,0,1,9.21,5.57,71,71,0,0,1,8.5,6.85,61.32,61.32,0,0,1,7.42,8.24c1.16,1.45,2.13,3.07,3.17,4.62s1.91,3.23,2.67,5a57,57,0,0,1,3.86,10.58,60.66,60.66,0,0,1,1.64,11.06,68.49,68.49,0,0,1-2.32,21.89,47.31,47.31,0,0,1-10.94,20l-2,2.09c-.7.66-1.46,1.27-2.19,1.9a51.34,51.34,0,0,1-4.62,3.45c-.81.51-1.64,1-2.46,1.46l-1.24.71c-.41.23-.84.42-1.26.63l-2.55,1.22-2.6,1-1.3.51-1.32.43c-.88.28-1.76.58-2.64.84-1.77.45-3.55,1-5.33,1.28a76,76,0,0,1-10.77,1.46,79.68,79.68,0,0,1-21.59-1.62,89.91,89.91,0,0,1-10.37-2.88c-1.7-.58-3.37-1.22-5-1.9l-4.48-1.81c-11.67-4.45-24.38-6.89-37.19-8.3q-4.81-.53-9.68-.84c-1.61-.13-3.24-.11-4.86-.14s-3.25-.09-4.87-.28c-6.48-.83-13-1.44-19.6-1.94Q39.85,120.17,19.72,120.35Z"/></g></g></g></svg>