<svg xmlns="http://www.w3.org/2000/svg" viewBox="0 0 92 100"><title>-</title><g id="Livello_2" data-name="Livello 2"><g id="RESIN-A"><path id="_-" data-name="-" d="M0,66.07c22.43-5.62,39.1,3.51,39.1,3.51C20.13,64,12.65,45.69,12.65,45.69,36.8,51.31,39.1,64,39.1,64,25.3,40.77,47.72,0,47.72,0c19.56,48.5-1.14,65.37-1.14,65.37C58.65,47.09,78.2,42.17,78.2,42.17,69,64.66,46.58,74.5,46.58,74.5,74.17,50.61,92,70.29,92,70.29c-18.4,17.57-44.85,7-44.85,7,13.23-.7,22.43,12,22.43,12-16.11-.7-23-9.84-23-9.84C43.13,101.21,35,100.36,36.22,99.81c4.61-2.11,7.48-20.39,7.48-20.39s-11.5,12.65-23,12.65c0,0,7.47-12.65,22.43-14C43.13,78,17.83,88.56,0,66.07Z"/></g></g></svg>