<svg xmlns="http://www.w3.org/2000/svg" viewBox="0 0 114.63 164.67"><title>A</title><g id="Livello_2" data-name="Livello 2"><g id="RESIN-A"><g id="A"><path d="M33.23,115.24a289.21,289.21,0,0,0-7.57,34.7q-1.68,11-10.31,10.94a14,14,0,0,1-10.83-5.15A17.21,17.21,0,0,1,0,144.05q0-14.3,12.83-48.58Q26.29,59.71,42.7,33.63,62.26,2.71,77.19.61q13-1.89,16.83,2.1,20.61,22.1,20.61,64.57,0,18.3-4.21,43.54l-7.15,43.12q-1.47,10.73-9.88,10.73-7.15,0-11.78-6.21a18.12,18.12,0,0,1-3.79-13.36l3.79-29.23q-6.73-.63-24.19-2.1a130.06,130.06,0,0,0-16.4-.21q-3.59.21-7.58.63Zm56-55.32q0-33-10.31-33-8.19,0-18.93,20.82Q54.48,58.88,41,87.05q16.4-.19,45.64.85Q89.18,76.53,89.18,59.92Z"/></g></g></g></svg>