<svg xmlns="http://www.w3.org/2000/svg" viewBox="0 0 271.01 268.49"><title>R</title><g id="Livello_2" data-name="Livello 2"><g id="RESIN-A"><g id="R"><path d="M271,257.44q0,5.37-6.32,8.52a24.46,24.46,0,0,1-11.06,2.53A33.16,33.16,0,0,1,241.3,266q-13.91-5.67-45.2-34.07-29.72-27.13-42.35-44.48a164.42,164.42,0,0,0-14.54-17.36l-10.75-3.78-1.9.63q-9.16,3.15-27.18,5.68v70.35A20.9,20.9,0,0,1,95,256.34c-2.91,3.68-7,5.52-12.18,5.52a14.75,14.75,0,0,1-12-5.52,20.41,20.41,0,0,1-4.54-13.41V174.15q-45.73-1.58-45.74-23.66a24.77,24.77,0,0,1,.63-5.36q4.45-20.19,17.79-25.56,4.77-1.89,27.32-3.15v-29q-.34-17.65-2.45-25.24a21.08,21.08,0,0,1-.7-5.68A15.89,15.89,0,0,1,67.52,45a15.07,15.07,0,0,1,11.35-4.58Q90.54,40.38,94,53q6,21.47,6.62,64.05,5,3.78,15.78,6.31,14.51,3.48,16.72,4.42,31.55-9.15,48.27-24,9.47-8.2,9.47-14.51,0-15.47-10.42-30.29T155.54,37.23q-24-11.35-59-11.36-25.54,0-45.43,11-6,3.17-27.13,15.78a16.76,16.76,0,0,1-8.21,2.52A13.63,13.63,0,0,1,4.42,49.38,20.68,20.68,0,0,1,0,36.6Q0,25.88,9.78,20.51,44.81.95,76.67,1q-5.06,0,6-.48T97.49,0q78.87,0,110.42,41.33,16.72,21.77,16.72,48,0,42-59.31,65.62,3.15,1.89,11.2,13.88T187.4,183.3l36,32.82q21.13,18.62,38.49,29.65Q271,251.46,271,257.44ZM63.1,154.91q.32-3.79.31-6.94,0-8.52-2.52-11.36-14.52,0-13.57,7.89.63,6.31,8.52,8.83Q61.21,155.22,63.1,154.91Z"/></g></g></g></svg>