<svg xmlns="http://www.w3.org/2000/svg" viewBox="0 0 165.11 152.49"><title>S</title><g id="Livello_2" data-name="Livello 2"><g id="RESIN-A"><g id="S"><path d="M165.11,100.12a52.89,52.89,0,0,1-.84,9q-4.22,23.36-33,34.71-21.68,8.63-50.06,8.62-47.11,0-69.83-18.93-8.2-6.74-8.2-18.3,0-16.61,15.14-22.08,19.56-6.95,49.43-6.94,28,0,46.48,5.68,2.94.84,2.94,4.2,0,3-3.36,7.36-6.11,8-13.88,8a9.58,9.58,0,0,1-4-.85q-16-6.93-19.35-8a56.42,56.42,0,0,0-21-1.68q-4,.42-20.19,6.1-6.11,2.1-6.1,8.62,0,7.36,15.35,9,3.15.42,21.24.42a178.92,178.92,0,0,0,52-8,53.78,53.78,0,0,0,20.41-10.93q6.31-5.48,6.31-11.36,0-6.31-8-10.94-11.58-6.72-36-7.15,3.78.21-36.18,1-20.19.42-30.5-1.26Q15.77,73.62,7.36,63.73A29.84,29.84,0,0,1,0,43.75a32,32,0,0,1,7.36-20.4A42.39,42.39,0,0,1,25.24,10.73,169.48,169.48,0,0,1,86,0q23.36,0,53.22,5.47l14.51,5.68A8.44,8.44,0,0,1,158,18.93,10.79,10.79,0,0,1,147,29.87q-5,0-20.4-3.16t-21.45-4Q82,19.56,65.2,21,53,22.1,47.11,24q-8.19,2.52-16.4,9.88-6.53,5.69-6.52,10.73,0,4.84,6.31,8.41a24,24,0,0,0,10.3,3.16Q54.27,56.37,81,57q23.55.63,40.17,4Q165.1,70,165.11,100.12Z"/></g></g></g></svg>