<svg xmlns="http://www.w3.org/2000/svg" viewBox="0 0 337.96 364.2"><defs><style>.cls-1{fill:#fff;stroke:#000;stroke-linecap:round;stroke-linejoin:round;stroke-width:13px;}</style></defs><title>Livello 3</title><g id="Livello_2" data-name="Livello 2"><g id="Mano_DX" data-name="Mano DX"><g id="Livello_3" data-name="Livello 3"><path class="cls-1" d="M84.16,258.27S116,224.54,95,165.55c0,0-17.5-16.7-49.67-.77,0,0-18.09,3.15-19.63,53.45L7.15,288.85s-5.22,9.42,13.91,17S97,327.8,122,347.4s58.46,5.21,58.46,5.21,28.59-15.58,34.52-32c0,0,49.33-2.82,83.58-46.26S325,146.92,325,146.92s-6.53-12.74-.68-21.39c0,0,32.5-47.17-41.3-104.39,0,0-69.46-44-91.64,20.56,0,0-27.86,1.44-57.18,38.27,0,0-46.38,65-37.55,90C111.36,211.69,87.78,264.18,84.16,258.27Z"/></g></g></g></svg>